<?xml version="1.0" encoding="utf-8"?>
<!-- Generator: Adobe Illustrator 26.3.1, SVG Export Plug-In . SVG Version: 6.00 Build 0)  -->
<svg version="1.1" id="Layer_1" xmlns="http://www.w3.org/2000/svg" xmlns:xlink="http://www.w3.org/1999/xlink" x="0px" y="0px"
	 viewBox="0 0 313.03 393.46" style="enable-background:new 0 0 313.03 393.46;" xml:space="preserve">
<g>
	<g>
		<g>
			<path d="M156.99,155.33c0.49-0.65,0.43-1.65-0.13-2.24c-2.07,0.9-4.61,0.61-6.41-0.74c2.38,0.31,3.7-3.68,1.61-4.86
				c1.21-0.42,1.92-1.93,1.47-3.13c-0.73-0.6-1.46-1.2-2.19-1.79c-0.53-0.44-1.07-0.87-1.6-1.31c0.86-2.01,0.36-4.54-1.22-6.06
				c0.74-0.16,1.48-0.33,2.23-0.49c0.11-0.7,0.22-1.39,0.33-2.09c-1.15-0.68-2.51-1.01-3.84-0.92c-1.18-0.86,0.82-2.51,2.22-2.11
				c1.4,0.41,2.93,1.46,4.14,0.64c-2.01-1.22-4.21-2.14-6.5-2.71c1.71-0.73,3.08-2.21,3.67-3.97c-2.42,0.14-4.84,0.28-7.26,0.41
				c0.53-0.05,0.69-0.57,0.6-1.12c-0.07-0.4-0.26-0.82-0.54-1.09c-0.66-0.65-1.58-1.45-1.21-2.3c0.21-0.48,0.79-0.75,0.93-1.26
				c0.24-0.87-0.88-1.41-1.57-2c-1.15-1-1.19-2.72-1.48-4.21c-0.29-1.49-1.39-3.19-2.88-2.92c0.31-1.06,1.08-1.99,2.07-2.49
				c-0.89-2.67-1.79-5.34-2.68-8.01c-0.28-0.84-0.57-1.72-0.48-2.6c0.82,0.89,1.27,2.11,1.23,3.32c1.27-3.15-2.71-6.89-5.78-5.42
				c0.28-1.06,0.56-2.13,0.84-3.19c-0.45-0.48-1.09-0.77-1.75-0.8c-0.54,1-0.81,2.15-0.78,3.28c-0.73-1.24-2.58-0.71-3.92-0.19
				c-1.34,0.51-3.47,0.34-3.47-1.09c-1.54,1.06-0.87,3.97,0.97,4.25c-1.53,1.19-4.18,0.12-4.45-1.8c-0.79-0.57-1.88,0.32-2.14,1.26
				c-0.25,0.94-0.1,1.98-0.53,2.86c-0.64,1.32-2.28,1.73-3.47,2.59c-1.55,1.13-2.3,3.03-3.44,4.58c-1.13,1.55-3.17,2.86-4.9,2.01
				c-0.07,1.96-0.14,3.91-0.21,5.87c-0.41-2.79-1.31-5.5-2.65-7.98c-0.07-0.65-0.14-1.29-0.2-1.94c-1.65,1.11-3.29,2.23-4.94,3.34
				c0.15-1.16,0.31-2.32,0.46-3.49c-1.78,0.49-3.18,2.16-3.33,4.01c-1.58-0.12-3.18,0.83-3.83,2.26c0.34-3.49,0.69-6.97,1.03-10.46
				c0.05-0.53,0.12-1.1,0.44-1.52c0.3-0.39,0.77-0.6,1.21-0.81c5.61-2.6,10.54-6.65,14.17-11.66c-5.39-0.1-10.96,2.57-14.09,7
				c-0.17,0.24-0.88,1.14-1.23,1.08c0.02-1.48,0.23-5.09,0.25-6.41c0.15-0.09,0.31-0.22,0.46-0.43c0.16-0.22,0.81-0.3,1.05-0.38
				c2.96-1.02,5.88-2.03,8.72-3.37c2.96-1.39,5.84-2.96,8.73-4.51c1.16-0.62,2.34-1.23,3.65-1.45c1.32-0.22,2.61-0.63,3.85-1.14
				c1-0.41,1.29-1.69,0.51-2.29c-1.39-1.06-2.72-1.09-4.43-1.05c-1.69,0.04-3.38,0.09-5.06,0.13c-0.52,0.01-1.04,0.03-1.54,0.16
				c-0.78,0.21-1.45,0.68-2.1,1.17c-2.26,1.71-4.37,3.6-6.58,5.38c-2.15,1.72-4.55,3.67-7.21,4.52c0.24-0.08-0.1-1.28-0.13-1.43
				c-0.19-1.09-0.14-2.15-0.14-3.26c0.01-1.5-0.03-3.01-0.2-4.5c-0.17-1.5-0.62-2.96-0.46-4.48c0.1-0.75,1.01-0.58,1.57-0.7
				c1.19-0.26,2.38-0.77,3.51-1.2c2.35-0.9,4.64-1.93,6.95-2.92c2.52-1.08,5.14-2.17,7.02-4.17c0.28-0.3,1.43-1.54,1.19-2.02
				c-0.25-0.5-2.04-0.42-2.51-0.39c-2.9,0.17-5.82,0.36-8.65,0.99c-0.6,0.13-1.21,0.29-1.77,0.54c-0.58,0.26-1.11,0.62-1.61,1.01
				c-1.25,0.97-2.33,2.15-3.53,3.19c-0.72,0.62-2.35,2.24-3.4,1.5c-0.38-1.95-0.65-3.95-1.38-5.82c-0.27-0.69-0.89-1.46-0.75-2.24
				c0.24-1.33,2.41-1.56,3.4-2.07c1.43-0.73,2.72-1.7,3.99-2.66c1.99-1.51,3.99-3.03,5.63-4.91c0.5-0.58,0.97-1.19,1.32-1.88
				c0.28-0.56,0.47-1.15,0.65-1.74c0.2-0.62,0.4-1.25,0.59-1.87c0.11-0.33,0.21-0.68,0.17-1.02c-0.12-0.92-1.4-1.03-2.13-1.07
				c-0.97-0.05-1.92,0.21-2.69,0.83c-0.34,0.13-1.19,1.4-1.45,1.66c-0.63,0.63-1.26,1.26-1.88,1.91c-1.26,1.31-2.47,2.67-3.55,4.14
				c-0.62,0.84-1.2,1.72-1.86,2.53c-0.7,0.85-1.56,1.48-2.31,2.27c-0.47,0.49-1.22,0.63-1.44,0.01c-0.77-2.15-1.22-4.49-1.26-6.78
				c-0.03-1.58,0.23-3.21,0.99-4.6c0.45-0.83,1.07-1.55,1.6-2.33c0.52-0.76,0.96-1.57,1.54-2.28c0.9-1.1,2.11-1.94,3.46-2.39
				c0.51-0.17,1.05-0.29,1.53-0.53c1.58-0.79,1.76-2.91,0.78-4.23c-0.56-0.76-1.48-1.25-2.41-0.84c-0.42,0.18-0.77,0.48-1.11,0.78
				c-0.86,0.74-1.72,1.48-2.58,2.21c-0.29,0.25-0.59,0.5-0.84,0.79c-0.95,1.07-1.27,2.53-2.09,3.69c-0.82,1.16-1.79,2.25-2.22,3.63
				c-0.17,0.55-0.66,0.56-1.06,0c-1.19-1.64-2.57-3.14-4-4.56c-0.82-0.81-1.59-1.9-2.71-2.3c-1.38-0.49-2.42,0.57-2.51,1.9
				c-0.13,1.99,0.71,3.93,1.84,5.58c1.89,2.77,4.26,5.31,6.43,7.86c0.53,0.62,1.06,1.25,1.59,1.87c0.89,1.05,1.25,1.98,1.64,3.27
				c0.43,1.41,1.2,2.8,1.81,4.15c0.66,1.45,1.3,2.9,1.81,4.41c0.26,0.77,0.48,1.55,0.65,2.34c0.13,0.64,0.45,1.62,0.27,2.26
				c-1.76-0.88-3.41-2.06-5.16-2.99c-4.5-2.38-9.33-4.06-13.94-6.22c-1.47-0.69-2.92-1.43-4.47-1.94c-0.76-0.25-1.53-0.45-2.33-0.55
				c-0.38-0.05-0.86-0.14-1.24-0.07c-0.34,0.06-0.66,0.29-0.99,0.4c1.44,2.25,3.34,4.07,5.77,5.24c1.8,0.87,3.77,1.35,5.53,2.3
				c1.16,0.63,2.2,1.45,3.25,2.24c1.94,1.47,3.93,2.88,6.1,3.97c2.69,1.34,5.31,1.86,8.28,1.96c0.21,0,0.34,3.55,0.36,3.82
				c0.02,0.29,0.1,9.8,0.32,8.75c-0.15,0.7-2.67-1.23-2.93-1.36c-1.23-0.63-2.62-0.89-3.96-1.19c-5.66-1.25-11.11-3.56-16.55-5.53
				c-2.77-1.01-5.7-1.53-8.53-2.37c-1.96-0.58-3.86-0.43-5.85-0.66c-1.46-0.16-0.06,2.92,0.19,3.38c0.14,0.25,0.29,0.5,0.5,0.69
				c0.25,0.23,0.58,0.36,0.89,0.49c2.12,0.88,4.02,2.09,6.05,3.12c2.08,1.05,4.29,1.84,6.56,2.35c2.12,0.48,4.29,0.7,6.45,0.93
				c1.02,0.11,2.04,0.22,3.07,0.32c3.72,0.39,7.44,0.9,11.17,1.19c1.47,0.11,3.33,0.19,3.37,2.05c-0.02,1.3,0.01,2.68-0.29,4.39
				c-2.53-0.45-5.06-0.91-7.58-1.36c-3.24-0.58-6.63-1.16-9.78-0.19c3.2,4.19,9.39,3.94,14.61,4.66c0.63,0.09,2.06,0.01,2.74-0.53
				c0,0-0.45,2.53-0.5,3.25c-0.12,1.94-0.77,3.84-1.84,5.46c0.42-0.63-0.4-2.46-0.7-3.03c-0.46-0.86-1.19-1.77-2.09-2.21
				c-0.57,2-1.14,3.99-1.7,5.99c-0.26,0.92-0.55,1.88-1.26,2.51c-0.71,0.63-1.98,0.73-2.52-0.06c0.46-1.39,0.92-2.78,1.37-4.17
				c-2.76,2.01-4.32,5.56-3.94,8.96c-0.62-2.3-0.47-4.79,0.41-7c-3.19,1.21-5.84,3.76-7.18,6.89c-0.22-0.81-0.43-1.62-0.65-2.43
				c-1.68,1.34-2.32,3.83-1.51,5.81c-1.37,0.17-1.57-1.96-1.08-3.26c0.49-1.29,0.68-3.33-0.69-3.52c0.56-0.15-1.1,0.02-2.5,0.26
				c0.18-1.13,0.96-2.15,2.01-2.61c-3.19,0.19-6.05,2.87-6.46,6.03c-0.5-2.7-0.99-5.41-1.49-8.11c-0.14-0.76-0.33-1.6-0.96-2.05
				c-0.51-0.37-1.2-0.38-1.76-0.68c-0.56-0.3-0.88-1.2-0.33-1.51c-1.72-0.2-3.44-0.4-5.15-0.6c0.14-2.41-3.37-4.04-5.12-2.38
				c-0.5,0.48-0.92,1.17-1.61,1.22c-0.55,0.04-1.05-0.37-1.6-0.38c-0.73-0.01-1.27,0.64-1.7,1.23c-2.03,2.81-4.06,5.62-6.09,8.42
				c-0.82,0.61-0.08,1.92,0.79,2.45c0.86,0.54,2,1.13,1.93,2.15c-0.09,1.32-2.03,1.49-3.23,0.91c-0.67-0.32-3.35-1.97-3.75-0.67
				c-0.5,1.63,2.12,1.27,2.33,1.56c0.81,1.1,1.62,2.21,2.43,3.31c-1.79,0.04-3.58,0.09-5.37,0.13c-1.7,2.29-0.55,6.1,2.14,7.07
				c0.9,0.32,2,0.44,2.51,1.24c0.82,1.31-1.01,2.97-2.51,2.61s-2.46-1.78-3.27-3.1c-0.99,1.03-0.74,2.82,0.17,3.92
				c0.91,1.11,2.28,1.7,3.6,2.26c-1.62,0.11-3.36,0.27-4.62,1.31c-1.25,1.04-1.6,3.3-0.24,4.19c-1.42,0.67-2.46,2.1-2.65,3.66
				c1.44,0.34,2.89,0.68,4.33,1.01c-1.77,0.72-3.54,1.45-5.31,2.17c1.04,0.28,2.08,1.91,1.01,2.04c0.88,0.19,1.77,0.37,2.65,0.56
				c-1.85,0.9-2.97,3.25-2.2,5.16c0.78,1.91,3.56,2.75,5.1,1.38c-1.74,1.93-3.49,3.85-5.23,5.78c-0.45,0.49-0.93,1.14-0.68,1.76
				c0.51,1.29,3.2,0.45,3.45,1.82c-2.76,0.41-5.59,0.29-8.3-0.36c-0.78,0.86-0.26,2.36,0.73,2.97c0.99,0.62,2.23,0.6,3.4,0.56
				c-0.3,2.01-0.01,4.1,0.83,5.95c-1.13,1.2-3.35,1.04-4.3-0.31c0.24,2.71,4.11,4.24,6.14,2.42c0.02,1.63,1.42,3.11,3.04,3.24
				c0.16,1.12,0.19,2.36-0.45,3.29c-0.64,0.93-2.21,1.26-2.89,0.35c-0.1,2.49,3.55,4.09,5.32,2.34c-1.07,1.73,0.76,4.37,2.76,3.96
				c0.19,0.85,0.68,1.63,1.36,2.17c1.1-1.44,2.58-2.59,4.24-3.31c-1.15,1.62-1.32,3.98-0.15,5.58c1.17,1.61,3.73,2.1,5.25,0.82
				c0.83,0.31,1.66,0.63,2.49,0.94c-1.01,0.45-1.77,1.41-1.98,2.49c1.46,0.23,2.98,0.46,4.4,0.06c1.42-0.4,2.74-1.6,2.76-3.08
				c0.97,0.7,0.88,2.41-0.15,3.01c2.72,1.58,6.18,1.83,9.1,0.66c1.43,2.88,5.24,3.89,8.37,3.14c3.13-0.75,5.73-2.85,8.23-4.88
				c-0.1,0.87,1.17,1.5,1.79,0.89c-0.24,1.3,0.28,2.72,1.31,3.56c1.42-0.79,2.75-1.72,3.98-2.79c0.38,0.96,0.76,1.93,1.13,2.89
				c1.21-1.3,2.42-2.61,3.63-3.91c-0.89,0.1-1.81-0.05-2.63-0.41c1.41-0.77,3.08,0.27,4.52,0.98c1.45,0.71,3.75,0.72,4.09-0.85
				c0.45,0.97,1.88,1.29,2.71,0.62c-1.22-0.2-0.76-2.37,0.46-2.55c1.23-0.18,2.28,0.83,3.02,1.83c0.73,1,1.46,2.15,2.66,2.49
				c1.07-2.45,4.76-3.21,6.72-1.38c0.72-0.65,0.86-1.84,0.31-2.64c1.03-0.47,2.27,1.01,1.61,1.94c2.48,0.11,4.97,0.21,7.45,0.32
				c1.89,0.08,4.1,0.01,5.19-1.54c-0.7-0.95-1.41-1.9-2.11-2.85c1.64,0.96,4.05,0.15,4.78-1.61c0.34-0.82-0.45-1.66-0.53-2.54
				c-0.16-1.85,2.46-2.43,4.29-2.15c1.83,0.27,4.36,0.29,4.8-1.51c0.82,0.75,1.64,1.5,2.46,2.26c1.52-2.13,0.65-5.54-1.71-6.69
				c1.73-0.6,3.47,2.8,4.82,1.57c0.83-0.75-0.02-2.08-0.8-2.88c-0.78-0.81-1.39-2.35-0.39-2.84c1.43,1.95,3.49,3.43,5.79,4.18
				c-0.2-2.29-1.53-4.46-3.49-5.67c1.9,0.07,3.65-1.72,3.54-3.61c0.96,0.69,2.39-0.37,2.49-1.55c0.1-1.18-0.61-2.26-1.3-3.23
				c1.79,1.79,5.52-0.35,4.87-2.8c1.58,1.17,3.71-1.48,2.79-3.21c-0.92-1.73-3.23-2.15-5.18-1.94
				C152.77,155.42,154.9,155.11,156.99,155.33z M96.9,89.63c0.02-0.04,0.06-0.07,0.1-0.08c0.29-0.12,0.59,0.12,0.9,0.17
				c0.44,0.07,0.88-0.37,0.81-0.81c-0.12,0-0.25,0.01-0.36-0.05c-0.11-0.06-0.19-0.19-0.13-0.31c0.67-0.08,1.35-0.11,2.03-0.09
				c-0.44,0.65-0.89,1.3-1.35,1.95c-0.17,0.24-0.35,0.49-0.59,0.65c-0.31,0.21-0.7,0.27-1.01,0.49c-0.5,0.36-0.7,1.12-1.3,1.28
				c-0.49,0.13-1.06-0.22-0.67-0.67c0.41-0.48,0.88-0.91,1.3-1.38c0.23-0.26,0.47-0.61,0.33-0.92C96.92,89.78,96.86,89.7,96.9,89.63
				z M109.19,76.59c1.1-0.32,2.22-0.59,3.33-0.86c0.1-0.02,0.24,0.08,0.47,0.16c-1.21,0.5-2.27,0.97-3.35,1.38
				c-0.18,0.07-0.44-0.09-0.66-0.15C109.05,76.94,109.08,76.62,109.19,76.59z M98.42,43.04c0.19-0.17,0.38-0.35,0.55-0.52
				c0.25-0.26,0.5-0.52,0.82-0.7c0.23-0.13,0.5-0.2,0.74-0.12c0.29,0.1,0.47,0.39,0.63,0.66c0.05,0.09,0.11,0.19,0.11,0.3
				c0,0.08-0.03,0.16-0.06,0.24c-0.21,0.54-0.62,1.07-1.19,1.16c-0.26,0.04-0.53-0.01-0.79,0.04c-0.29,0.06-0.54,0.23-0.79,0.38
				c-0.51,0.28-1.31,0.57-1.89,0.4C97.01,44.21,97.76,43.63,98.42,43.04z M93.71,48.51c0.06-0.06,0.12-0.12,0.17-0.17
				c0.42-0.37,0.96-0.56,1.44-0.83c-0.05,0.65-0.3,1.29-0.7,1.81c-0.38,0.48-1.07,1-1.72,0.83C92.9,49.63,93.32,48.94,93.71,48.51z
				 M91.38,32.44c0.21-0.82,0.89-0.83,1.38-0.66c0.39,0.14,0.63,0.72,1.16,1.38c-0.63,0.34-0.96,0.59-1.33,0.69
				c-0.63,0.17-1.28,0.25-1.92,0.36C90.91,33.63,91.22,33.05,91.38,32.44z M84.52,70.05c-0.59-1.07-1.78-0.85-2.59-1.39
				c-0.34-0.22-0.73-0.36-1.1-0.53c0.04-0.1,0.08-0.21,0.12-0.31c1.84,0.41,3.61,0.98,4.93,2.64
				C85.42,70.33,84.69,70.34,84.52,70.05z M69.36,79.39c-1.04-0.32-2.07-0.64-3.29-1.02c0.35-0.45,0.55-0.72,0.82-1.07
				c0.92,0.57,1.81,1.12,2.69,1.66C69.51,79.1,69.44,79.25,69.36,79.39z M69.83,79.23c1.26-0.68,1.93,0.53,3.03,0.83
				C70.85,80.22,70.7,80.18,69.83,79.23z M87.28,94.5c-0.62-0.05-1.25-0.06-1.87-0.17c-0.84-0.14-1.67-0.36-2.51-0.53
				c-0.5-0.1-1-0.15-1.51-0.21c-0.53-0.06-1.06-0.08-1.58-0.18c-0.48-0.09-0.94-0.33-1.43-0.38c-0.8-0.09-1.09-0.56-1.3-1.51
				c1.52,0.29,2.86,0.68,4.23,0.77c2.47,0.16,4.69,1.69,7.25,1.22c0.78-0.14,1.25,0.16,1.6,0.76C90.14,94.43,88.21,94.58,87.28,94.5
				z M29.57,133.82c0.85,0.26,1.78,0.28,2.67,0.41c0,0.15,0.01,0.29,0.01,0.44c-1.48,0.04-2.96,0.09-4.49,0.13
				C28.01,133.65,28.44,133.47,29.57,133.82z M28.23,138.97c-0.33-0.02-0.65-0.17-0.97-0.29c-0.21-0.08-0.4-0.2-0.59-0.3
				c0.11-0.19,0.18-0.42,0.33-0.57c0.19-0.18,0.44-0.29,0.79-0.51c-0.03,0.2-0.06,0.34-0.07,0.38c0.83-0.17,1.75-0.36,2.8-0.57
				c1,0.68-0.35,1.19-0.22,1.83C29.61,138.96,28.92,139,28.23,138.97z M33.25,146.1c-0.62,0.8-1.26,1.6-1.91,2.37
				c-0.27,0.32-0.57,0.64-0.91,0.88c-0.23,0.16-0.56,0.17-0.85,0.25c0.09-0.35,0.1-0.74,0.28-1.04c0.29-0.48,0.68-0.89,1.03-1.33
				c0.52-0.18,0.83-0.45,1.13-1.22c0.28-0.71,1.23-1.16,1.88-1.72c0.13,0.12,0.26,0.24,0.39,0.35
				C33.95,145.13,33.62,145.63,33.25,146.1z M37.63,104.44c0.27-0.22,0.53-0.36,0.7-0.57c0.79-0.93,1.11-0.92,1.71,0.13
				c0.25,0.44,0.49,0.9,0.73,1.35C39.45,106.2,38.55,105.53,37.63,104.44z M47.76,98.38c-0.16-0.02-0.34-0.13-0.44-0.26
				c-0.36-0.48-0.69-0.98-1.03-1.47c0-0.1,0-0.21-0.01-0.31c0.41,0.18,0.91,0.27,1.21,0.57c0.3,0.3,0.41,0.79,0.56,1.21
				C48.07,98.17,47.85,98.39,47.76,98.38z M50.45,121.17c-0.49-0.02-1.03-0.03-1.7-0.05c0.24-0.98,0.76-1.95,0.63-2.81
				c-0.16-1.03-0.87-1.98-1.36-2.95c-0.07-0.14-0.32-0.19-0.38-0.32c-0.31-0.72,0.93-3.28,1.75-3.57c0.24,1.78,0.45,3.49,1.32,5.17
				C51.37,117.92,51.59,119.62,50.45,121.17z M84.02,108.36c0.11-0.04,0.21-0.08,0.32-0.12c0.22,0.29,0.44,0.58,0.59,0.77
				c-0.45,0.61-0.84,1.13-1.23,1.65c-0.07-0.01-0.14-0.03-0.2-0.04C83.67,109.86,83.85,109.11,84.02,108.36z M83.29,111.44
				c0.08-0.01,0.16-0.03,0.24-0.04c0.06,0.23,0.14,0.45,0.18,0.69c0.08,0.48,0.16,0.95,0.21,1.43c0.02,0.2,0.04,0.47-0.08,0.59
				c-0.12,0.13-0.45,0.21-0.58,0.13c-0.17-0.11-0.34-0.4-0.32-0.59C83.02,112.91,83.17,112.17,83.29,111.44z M80.32,110.36
				c0.45-0.85,0.96-1.66,1.6-2.74c0.31,1.96-1.16,3.22-1.04,5.09C79.91,111.85,79.93,111.11,80.32,110.36z M70.3,112.78
				c0.03-0.26,0.39-0.48,0.6-0.72c0.14,0.33,0.49,0.8,0.38,0.97c-0.28,0.45,0.1,1.65-0.01,1.79c-0.18,0.22-0.48,0.33-0.74,0.49
				c-0.07-0.25-0.2-0.49-0.2-0.74C70.33,114.43,70.26,113.22,70.3,112.78z M66.05,195.85c0.55-0.32,1.1-0.65,1.72-1.01
				C67.74,195.97,67.29,196.28,66.05,195.85z M81.92,155.64c-0.03,0.06-0.05,0.13-0.08,0.19c-0.52,1.16-1.38,2.16-2.35,2.98
				c-1.33,1.13-2.9,2.01-4.61,2.38c-1.97,0.43-4.02,0.17-6.04,0.23c-1.14,0.03-2.3,0.16-3.42-0.07c-1.43-0.3-2.68-1.16-3.9-1.96
				c-1.66-1.08-3.37-2.09-4.87-3.39c-1.49-1.3-2.77-2.94-3.25-4.86c-0.44-1.74-0.2-3.6,0.37-5.3c0.56-1.68,1.41-3.74,2.43-5.18
				c1.05-1.48,3.34-2.81,4.89-3.7c1.87-1.08,3.99-1.81,6.14-1.73c3.67,0.13,6.82,2.49,9.78,4.65c1.05,0.76,2.14,1.54,2.86,2.61
				c0.84,1.24,1.11,2.77,1.46,4.22C82.02,149.66,83.06,152.82,81.92,155.64z M95.89,163.77c-0.64,0.25-1.35,0.27-2.03,0.39
				c-0.68,0.12-1.39,0.38-1.78,0.95c-0.31,0.45-0.36,1.03-0.35,1.57c0.01,0.54,0.08,1.1-0.03,1.63c-0.11,0.53-0.42,1.07-0.94,1.25
				c-1.41,0.49-1.27-1.8-1.55-2.61c-0.39-1.11-1.07-2.39-2.22-2.85c-0.81-0.33-1.71-0.28-2.57-0.36c-0.85-0.08-2.54-0.63-2.21-1.77
				c0.45-1.57,2.5-1.02,3.52-0.65c1.61,0.57,3.36,0.75,5.05,0.52c1.93-0.26,3.93-1.04,5.75-0.36c0.08,0.03,0.16,0.06,0.23,0.11
				c0.04,0.03,0.09,0.06,0.12,0.09c0.16,0.15,0.23,0.38,0.23,0.61C97.12,162.96,96.53,163.53,95.89,163.77z M127.65,119.26
				c0.01,0.24-0.67,0.51-1.3,0.95c-0.43-0.6-0.73-1.01-1.02-1.43c0.33-0.24,0.65-0.64,1-0.67
				C127.07,118.05,127.62,118.55,127.65,119.26z M123.39,106.5c0.15-0.01,0.29-0.02,0.44-0.02c0.13,0.51,0.21,1.04,0.4,1.52
				c0.23,0.59,0.58,1.13,0.81,1.72c0.12,0.3,0.08,0.66,0.14,0.99c0.11,0.58,0.25,1.16,0.38,1.74c0.21,0.87,0.39,1.75,0.64,2.6
				c0.11,0.39,0.35,0.75,0.57,1.21c-0.69,0.63-1.15,0.54-1.36-0.29c-0.11-0.45-0.07-0.95-0.2-1.39c-0.49-1.58-0.96-2.14-2.59-1.45
				c-0.92,0.39-1.62,0.35-2.33,0.01C121.34,110.9,122.37,108.7,123.39,106.5z M121.26,98.3c-1.09-0.08-1.69-0.63-1.79-1.75
				C120.5,96.82,121.3,97.14,121.26,98.3z M114.43,103.26c0.18,1.04,0.41,2.01,0.49,2.99c0.03,0.3-0.34,0.62-0.53,0.94
				c-0.23-0.22-0.56-0.4-0.68-0.68c-0.24-0.52-0.44-1.09-0.54-1.66C113.03,104.06,113.39,103.53,114.43,103.26z M121.11,192.39
				c-0.81-0.16-1.64-0.29-2.43-0.52c-0.22-0.06-0.33-0.47-0.5-0.72c0.28-0.05,0.58-0.2,0.82-0.12c0.77,0.23,1.51,0.55,2.26,0.83
				C121.22,192.03,121.16,192.21,121.11,192.39z M124.26,159.73c-1.34,0.89-2.62,1.93-4.13,2.47c-2.03,0.72-4.98,1.16-7.13,1.24
				c-1.93,0.07-3.14-0.27-5.05-0.54c-0.82-0.12-1.64-0.36-2.29-0.88c-0.01-0.01-0.02-0.02-0.03-0.03c-1.13-0.91-1.51-2.4-2.11-3.65
				c-0.72-1.5-1.28-3.05-1.55-4.7c-0.21-1.31-0.23-2.64-0.24-3.97c-0.01-1.46-0.01-2.97,0.55-4.31c0.52-1.24,1.47-2.2,2.39-3.15
				c1.34-1.38,2.95-2.33,4.5-3.39c1.96-1.35,4.58-2.24,7.09-1.98c1.79,0.19,3.35,1.26,4.82,2.31c2.84,2.03,5.03,4.11,5.92,7.6
				c0.49,1.93,0.6,3.94,0.6,5.93c0,1.66,0.14,3.56-0.86,5C126.13,158.58,125.16,159.14,124.26,159.73z M127.19,185.98
				c-0.36,0.02-0.86,0.21-1.05,0.04c-0.33-0.3-1.32-0.22-0.74-1.29c0.65,0.31,1.24,0.59,1.83,0.87
				C127.21,185.72,127.2,185.85,127.19,185.98z"/>
			<path d="M27.72,137.69L27.72,137.69C27.72,137.71,27.72,137.7,27.72,137.69z"/>
		</g>
		<path d="M68.27,142.69c0.06,0,0.13,0,0.19,0c2.62,0.03,5.21,1.69,6.13,4.14c0.4,1.06,0.47,2.32-0.16,3.26
			c-0.35,0.52-0.87,0.89-1.38,1.24c-1.17,0.8-2.37,1.58-3.58,2.31c-0.5,0.3-1.01,0.61-1.59,0.69c-0.61,0.09-1.23-0.06-1.82-0.22
			c-1.57-0.41-3.26-0.89-4.26-2.18C58.54,147.73,64.18,142.79,68.27,142.69z"/>
		<path d="M115,145.22c1.19,0.08,2.36,0.46,3.36,1.1c1.47,0.96,2.58,2.55,2.73,4.3c0.03,0.34,0.02,0.69-0.13,1
			c-0.15,0.32-0.42,0.55-0.68,0.78c-1.22,1.04-2.44,2.09-3.86,2.83c-1.42,0.74-3.07,1.15-4.63,0.83c-0.27-0.06-0.55-0.14-0.77-0.3
			c-0.31-0.23-0.48-0.6-0.64-0.95c-0.52-1.14-1.04-2.29-1.3-3.52c-0.29-1.36-0.33-3.08,0.68-4.14c0.99-1.03,2.48-1.68,3.87-1.88
			C114.08,145.2,114.54,145.19,115,145.22z"/>
	</g>
	<g>
		<path d="M303.56,41.67c-5.14-11.53-22.49,5.78-26.61,10.26c-8.26,8.98-14.69,19.87-18.59,31.43c-0.25,0.75-2.9,10.27-3.93,10
			c-1.06-0.28-2.4-0.6-3.71-0.98c-7.25-2.04-14.4-4.33-21.85-5.56c-1.44-0.24-2.83-0.41-3.57-1.84c-1.84-3.54-2.47-6.99-2.64-10.93
			c-0.01-0.17,0.47-0.54,0.69-0.52c1.52,0.08,3.04,0.49,4.57,0.61c1.63,0.13,3.27,0.17,4.9,0.11c1.38-0.04,4.61,0.07,4.8-1.94
			c0.08-0.87-0.49-1.69-1.23-2.15s-1.61-0.65-2.46-0.82c-3.8-0.76-7.47-1.27-11.19-0.02c0.21-1.36,0.63-2.72,0.98-4.06
			c0.17-0.63,0.32-1.27,0.54-1.89c0.13-0.37,0.31-0.71,0.52-1.04c0.32-0.49,0.66-1.27,1.05-1.31c0.88-0.09,1.83,0.13,2.71,0.38
			c5.28,1.48,9.18,3.3,14.7,0.6c0.43-0.21,0.78-1.02,0.77-1.54c-0.06-3.55-8.63-3.41-10.96-3.16c-2.51,0.27-4.25,1.4-6.73,1.1
			c0.21-0.58,1.88-4.96,2.63-4.92c0,0,5.28-0.66,8.98-0.79c3.36-0.12,6.7-0.6,9.92-1.42c4.24-1.08,7.08-2.83,10.57-5.34
			c0.6-0.43,0.83-0.79,0.55-1.5c-0.31-0.77-0.76-1.29-1.64-1.03c-2.79,0.85-6.38-1.03-9.54-0.39c-2.69,0.54-5.24,1.61-7.77,2.68
			c-2.95,1.24-6.14,2.23-8.88,3.84c-0.02-0.25-0.09-0.42-0.04-0.53c0.42-0.91,2.23-5.49,2.25-5.55c0.16-0.57,0.25-0.87,0.71-1.09
			c0.46-0.21,0.92-0.42,1.37-0.63c3,0.15,6.38-1.02,8.9-2.81c2.79-1.98,5.12-4.52,7.43-7.04c3.85-4.2,2.12-8.76-3.34-5.61
			c-0.99,0.57-1.89,1.3-2.71,2.11c-2.97,2.94-5.76,6.12-8.91,8.9c-0.24,0.21-0.72,0.44-0.93,0.34c-0.27-0.13-0.58-0.65-0.51-0.91
			c0.21-0.77,0.31-5.89,0.2-7.68c0.07,0.1,5.01-4.5,5.46-5.07c1.14-1.44,1.96-3.12,2.85-4.73c0.39-0.72,0.78-1.45,1.17-2.17
			c0.82-1.52,1.84-3.11,2.11-4.8c-3.17-0.59-5.56,3.2-8.18,4.45c-0.58,0.28-1.21,0.48-1.68,0.92c-0.46,0.44-0.68,1.24-0.25,1.72
			c-0.76-0.11-1.49,0.46-1.81,1.16c-0.52,1.13-0.1,1.81-1.08,2.55c-0.56-0.39-1.11-1.08-1.24-1.79c-0.43-2.34-0.68-4.4,0.1-6.67
			c0.39-1.14,0.58-2.58-0.31-3.39c-1.39-1.26-4.73-0.3-4.14,1.76c0.38,1.32,0.7,2.65,1.05,3.96c-1.04-0.79-2.25-1.4-3.22-2.28
			c-0.87-0.79-1.65-0.51-2.54-0.16c0.72,0.94,0.71,0.95,1.39,1.82c0.05,0.07,0.89,0.92,0.98,0.97c0.75,0.41,1.66,0.69,2.18,1.3
			c0.44,0.51,0.98,1.17,1.31,1.61c0.01,0.01,0.12,0.08,0.16,0.14c0.93,1.39,1.87,2.78,2.77,4.19c0.16,0.25,0.17,0.59,0.31,1.14
			c0,0.02-15.42-4.97-16.73-4.6c-0.72,0.21-1.02,1.43-0.3,1.67c-7.42,0.93,1.59,4.36,4.3,4.71c2.77,0.36,5.64,0.99,8.44,1.09
			c0.7,0.02,5.03-0.75,5.07-0.7c0.93,1.14,1.02,2.32,0.8,4.02c-0.13,1.04-0.36,2.11-0.45,3.17c-0.09,0.99-0.78,1.79-1.46,1.55
			c-7.04-2.49-13.77-4.22-21.25-2.94c-0.76,0.25-0.76,0.25-0.53,1.09c0.18,0.66,1.25,1.89,1.35,1.96c0.75,0.48,2.15,0.72,3.03,1.03
			c2.35,0.84,4.75,1.59,7.23,1.95c1.64,0.24,3.34,0.4,4.99,0.55c1.31,0.11,2.63,0.4,3.47,0.41c1.04,0.01,2.1-0.4,1.84,0.5
			c-0.2,0.7-0.58,2.27-0.91,2.91c-0.1,0.2-0.32,0.59-0.4,0.8c-0.55,1.42-1.18,2.84-1.89,4.19c-0.18,0.35-0.79,0.72-1.16,0.68
			c-6.56-0.73-11.24-0.89-17.14-4.41c-4.31-2.57-8.6-5.14-13.65-5.88c-2.89-0.42-1.86,2.39-1.04,3.95c1.46,2.75,3.36,3.66,5.53,5.69
			c0.53,0.5,1.03,1.05,1.65,1.43c0.52,0.31,1.12,0.49,1.7,0.65c6.59,1.84,13.26,2.66,20.1,2.31c0.73-0.04,1.11,0.21,0.82,0.99
			c-0.14,0.37-1.18,2.71-1.57,3.7c-1.4,3.65-9.14,2.2-11.8,2.28c-4.55,0.15-9.15,0.95-12.73,3.97c1.57,2.08,3.11,3.54,6.26,3.56
			c1.97,0.01,3.89-0.63,5.58-1.65c4.08-2.46,7.04-3.21,10.4-3.35c-0.24,0.69-0.44,1.4-0.63,2.1c-0.44,1.63-0.85,3.26-1.32,4.88
			c-0.06,0.21-0.33,0.37-0.52,0.53c-0.15,0.12-0.32,0.2-0.49,0.3c-0.53,0.33-1.53,0.18-2.13,0.25c-0.81,0.09-1.62,0.23-2.42,0.41
			c-1.56,0.35-3.09,0.85-4.56,1.51c-0.61,0.27-5.92,2.57-4.44,3.72c0.54,0.42,0.84,0.63,1.52,0.82c0.63,0.18,1.27,0.31,1.92,0.39
			c1.26,0.16,2.55,0.14,3.8-0.05c1.44-0.22,2.8-0.76,4.21-1.12c0.41-0.11,0.82-0.25,1.2-0.45c0,0,1.81-0.96,1.81-0.96
			c0.49,3.63,0.75,7.71,2.39,11.05c-5.17,0.71-6.93,0.61-12.91,2.65c-2.35,0.8-5.62,2.36-7.54,3.33c-0.61-0.82-1.08-1.71-1.76-2.38
			c-7.44-7.23-15.68-13.76-23.33-20.91c-3.62-3.39-7.27-6.8-11.47-9.44c-5.38-3.38-11.55-5.15-17.72-6.39
			c-1.13-0.23-2.29-0.28-3.44-0.42c-1.19-0.14-2.9,0.44-2.97,2.26c-0.02,0.64-0.03,1.28-0.08,1.91c-0.47,5.5-3.19,10.92-3.91,16.53
			c-0.07,0.58-0.14,1.18,0.06,1.73c0.16,0.42,0.46,0.77,0.65,1.18c0.34,0.74,0.29,1.58,0.28,2.4c-0.03,5.73,2.65,11.16,5.99,15.83
			c3.33,4.67,7.35,8.82,10.56,13.58c0.8,1.19,1.55,2.41,2.3,3.64c0.82,1.33,1.63,2.67,2.45,4c2.22,3.62,4.44,7.26,6.08,11.18
			c1.31,3.13,2.12,6.52,3.66,9.55c1.01,1.98,2.17,3.87,3.32,5.76c0.25,0.41,3.01,5,3,5.19c-0.1,2.67-0.03,5.33-0.57,7.98
			c-0.61,2.98-1.61,5.89-1.93,8.93c-0.44,4.21,0.48,8.43,1.39,12.57c0.75,3.41,1.4,7.25,3.12,10.34c0.94,1.69,2.64,2.41,4.43,3.05
			c3.8,1.36,7.83,1.58,11.68,2.68c2.46,0.7,5.01,1.41,7.53,1c2.82-0.46,5.03-2.8,6.45-5.14c0.72-1.2,1.27-2.44,2.1-3.58
			c0.88-1.21,1.88-2.33,2.99-3.33c1.29-1.16,2.72-2.16,4.25-2.98c0.76-0.41,1.55-0.77,2.36-1.07c0.42-0.16,0.84-0.3,1.27-0.43
			c0.25-0.08,1.05-0.14,1.21-0.32c1.76-1.93,5.02-0.86,7.04,0.81c5.4,4.47,7.96,12.16,14.27,15.21c3.47,1.67,7.48,1.62,11.33,1.5
			c3.78-0.12,7.73-0.33,10.98-2.26c1.53-0.91,2.98-2.22,4.76-2.25c1.17-0.02,1.32,0.54,2.48,0.37c0.75-0.11,1.41-0.51,2.05-0.91
			c2.71-1.71,3.84-6.31,5.56-8.94c3.9-5.98,4.9-10.29,4.34-17.29c-0.26-3.17-0.6-6.33-1.09-9.47c-0.53-3.43-1.22-8.83-2.07-12.19
			c-0.84-3.32-2.46-4.25-3.35-7.44c-0.81-2.9,5-6.8,7.38-8.1c1.88-1.03,3.72-2.16,5.42-3.48c3.58-2.79,6.36-6.37,7.86-10.69
			c2.05-5.93,2.26-12.31,2.85-18.55c0.72-7.66,2.04-15.26,3.94-22.71c0.84-3.3,1.8-6.59,2.03-9.98
			C308.61,54.16,306.23,47.68,303.56,41.67z M252.21,27.82c-1.12,1.01-2.12-0.29-3.41,0.02C250.12,26.83,251.36,26.88,252.21,27.82z
			 M243.31,15.53c0.11,0.01,0.23,0.03,0.34,0.04c-0.06,0.44-0.02,0.93-0.22,1.3c-0.13,0.25-0.59,0.32-0.91,0.47
			c-0.05-0.09-0.1-0.19-0.15-0.29C242.68,16.55,243,16.04,243.31,15.53z M218.13,26.51c-0.81-0.21-0.33-0.54,0.24-0.59
			c0.55,0.23,1.1,0.47,1.66,0.7c0.24,0.14,0.46,0.32,0.4,0.46C219.72,27.05,218.71,26.69,218.13,26.51z M212.5,34.37
			c1.49-0.17,2.7-1.27,4.09-0.15C215.82,35.04,214.06,35.14,212.5,34.37z M200.81,42.4c-1.28-0.3-2.87,0.04-3.6-1.43
			c0.88-0.26,1.71-0.5,2.51-0.73c1.33,1.48,3.59,1.52,5.13,2.94C203.5,42.92,202.14,42.72,200.81,42.4z M209.96,47.63
			c0.58-0.03,1.23-0.17,1.84-0.06c0.41,0.08,0.76,0.51,1.3,0.91C211.51,49.12,210.72,48.23,209.96,47.63z M208.34,63.19
			c-0.98,0.24-1.98,0.39-2.97,0.59c-1.27,0.26-1.5,0.03-1.31-1.25c1.72-0.07,3.42-0.14,5.12-0.21c0.04,0.1,0.07,0.2,0.11,0.3
			C208.97,62.82,208.68,63.11,208.34,63.19z M243.82,121.1c1.11-1.18,2.32-2.31,3.8-2.95c3.74-1.6,8.79,0.87,10.64,4.29
			c2.77,5.11,3.29,11.89-2.66,14.66c-2.32,1.08-4.92,1.4-7.46,1.7c-0.69,0.08-1.4,0.16-2.09,0.07c-0.16-0.02-0.33-0.06-0.49-0.1
			c-0.91-0.25-1.66-0.88-2.35-1.52c-1.65-1.54-3.12-3.28-4.35-5.17C238.55,127.95,241,124.11,243.82,121.1z M189.14,125.5
			c1.2-2.98,3.65-5.44,6.58-6.73c1.47-0.65,3.18-1.1,4.8-0.99c1.27,0.08,2.59,0.23,3.76,0.67c1,0.37,1.9,0.96,2.57,1.9
			c0.92,1.28,1.35,2.86,1.56,4.42c0.73,5.25-3.47,10.78-8.9,11.07c-2.18,0.12-4.51,0.2-6.37-0.94c-1.65-1-2.63-2.78-3.55-4.47
			c-0.44-0.81-0.88-1.65-0.95-2.56C188.6,127.06,188.84,126.26,189.14,125.5z M188.05,102.33c-3.55,4.43-6.9,11.21-7.29,16.92
			c-0.09,1.29-0.03,2.58,0.03,3.87c0.15,3.28,0.29,6.55,0.44,9.83c0.03,0.72,0.06,1.46-0.19,2.14c-0.61,1.67-1.92,2.73-2.44,4.48
			c-0.5,1.67-1.04,3.69-1.5,5.45c-0.29-0.24-0.51-0.32-0.54-0.45c-0.53-2.37-2.38-3.93-3.58-5.89c-3.35-5.52-4.72-12.31-7.55-18.16
			c-2.87-5.91-6.31-11.55-10.26-16.79c-4.66-6.19-10.17-12.09-12.31-19.53c-0.5-1.74-0.8-3.53-0.9-5.34
			c-0.32-5.75,1.81-10.46,3.44-15.77c0.31-1.01,1.08-1.55,2.49-1.54c6.44,0.05,11.61,4.77,16.19,8.72c3.9,3.37,7.84,6.64,11.43,10.3
			c1.26,1.28,2.47,2.62,3.62,4.02C181.25,87.17,190.79,98.92,188.05,102.33z M201.2,193.29c0.13-0.24,0.08-0.64-0.16-0.82
			c-0.36-0.26-0.85-0.2-1.28-0.13c3.53-1.24,7.83-5.21,8.31-5.43C208.19,187.16,203.78,192.47,201.2,193.29z M239.16,186.21
			c0.44,0.48,0.82,0.81,1.14,1.03c0,0.01-0.01,0.02-0.01,0.02c4.15,2.55,8.74,4.37,13.51,5.37
			C248.23,193.72,242.13,191.04,239.16,186.21z M268.79,184.2c0.13,2.19,0.34,5.68,0.01,5.81c-3.27,1.31-6.73,1.59-10.21,1.47
			c-2.93-0.1-5.67-0.61-8.47-1.43c-0.57-0.17-1.14-0.33-1.71-0.5c-0.34-0.1-0.69-0.2-1.03-0.31c-2.73-0.87-5.28-2.28-7.45-4.16
			c-2.37-2.06-4.19-4.69-6.39-6.92c-3.05-3.08-5.64-3.72-9.79-3.93c-0.23-1.65-0.4-3.33-0.71-4.98c-0.25-1.33-0.67-2.62-0.99-3.83
			c6.94-1.28,15.55-2.01,18.48-9.6c0.3-0.77,0.52-1.6,0.44-2.42c-0.12-1.29-0.98-2.41-1.98-3.23c-2.73-2.25-6.49-2.74-10.03-2.76
			c-5.57-0.03-21.19,0.42-22.23,8.09c-0.33,2.43,1.37,4.69,3.36,6.13c1.53,1.1,3.28,2.1,4.95,2.96c0.31,0.16,4.24,1.64,4.21,0.96
			c0.14,2.83,0.28,5.61,0.44,8.77c-5.08,4.07-9.96,8.27-14.83,12.59c-0.84,0.74-1.69,1.49-2.66,2.06c-2.09,1.22-4.59,1.51-7,1.74
			c-1.68,0.16-3.4,0.3-5.04-0.12c-1.64-0.42-3.2-1.5-3.75-3.1c-0.12-0.35-0.18-0.76,0.02-1.08c0.2-0.31,1.67-7.84,2.05-11.72
			c0.35-3.56,0.72-7.19,2.22-10.43c1.73-3.73,4.89-6.76,7.52-9.87c2.94-3.49,6.01-6.87,9.19-10.15c5.09-5.25,8.65-12.65,8.87-20.09
			c0.16-5.45,0.19-10.77-0.65-16.18c-0.57-3.68-4.52-13.68-4.45-13.78c1.06-1.43,4.16-2.2,5.79-2.6c2.3-0.56,4.67-0.73,7.02-0.81
			c3.22-0.11,6.86-0.53,9.94,0.56c1.93,0.69,0.49,9.22,0.42,10.78c-0.35,7.4-1.87,14.67-2.82,22c-0.8,6.18-1.57,12.32,2.28,17.71
			c2.42,3.39,6.17,5.79,10.25,6.59c3.07,0.59,6.29,0.31,9.27,1.24c9.13,2.85,14.32,14.85,15.03,23.51c0.25,3.11,0.39,6.23,0.34,9.35
			C268.7,182.73,268.74,183.37,268.79,184.2z M232.02,159.85c0.78-0.31,1.66-0.49,2.33-0.97c0.7-0.5,1.2-1.27,1.81-1.95
			C236.3,158.33,233.63,160.38,232.02,159.85z M237.57,151.14c1.04,1.47,1.01,2.79,0.04,3.84
			C237.6,153.73,237.58,152.6,237.57,151.14z M303.42,65.97c-2.65,12.11-4.5,24.38-5.54,36.73c-0.32,3.83-0.6,7.78-2.31,11.22
			c-3.15,6.34-12.88,11.03-17.41,15.61c0.15-0.15-0.3-5.59-0.38-6.44c-0.58-6.45-2.29-15.56-8.56-20.85
			c-1.65-1.39,0.51-5.94,1.49-8.67c0.22-0.62,0.42-1.18,0.54-1.62c1.12-4.01,2.39-7.99,4.08-11.8c3.87-8.78,9.78-16.49,15.63-24.1
			c2.87-3.73,5.63-7.34,9.61-9.88c0.52-0.33,0.99-0.67,1.56-0.87c2.13,3.46,2.69,9.64,2.46,13.68
			C304.47,61.34,303.93,63.66,303.42,65.97z"/>
		<path d="M235.56,186.82c-0.61-0.78-1.7-1.05-2.69-0.97c-1.02,0.08-1.99,0.47-2.98,0.72c-6.25,1.62-15.48,0.47-19.45-0.19
			c-0.26,0.77,0.02,2.07,1.25,2.26c0.33,0.05,2.56,0.33,2.83,0.52c0.26,0.19,0.4,0.51,0.53,0.81c1.26,2.68,3.79,4.73,6.67,5.42
			c1.45,0.35,3.01,0.37,4.42-0.13c4.01-1.42,5.69-6.4,9.47-8.37C235.6,186.87,235.58,186.84,235.56,186.82z M225.73,192.42
			c-1.63,0.84-3.15,0.61-4.39-0.73c-0.27-0.29-0.66-0.47-0.97-0.72c-0.33-0.26-0.64-0.55-0.96-0.83c0.05-0.17,0.11-0.34,0.16-0.5
			c1.2-0.06,2.4-0.14,3.6-0.16c1.21-0.02,2.43,0.11,3.62-0.01c1.11-0.12,2.18-0.49,3.54-0.81
			C228.98,190.58,227.41,191.56,225.73,192.42z"/>
		<path d="M210.66,144.51c0.89-0.5,1.94-0.84,2.64-1.53c1.33-1.31,2.87-1.56,4.6-1.56c0.67,0,1.32-0.36,2-0.44
			c1.25-0.16,2.51-0.25,3.76-0.33c0.68-0.04,1.37,0.03,2.05-0.02c0.89-0.07,1.72-0.2,2.46,0.59c0.44,0.47,1.24-0.28,1.9,0.37
			c0.38,0.38,0.46,0.48,0.26,0.91c-0.44,0.91-1.44,1.39-2.37,1.16c-0.91-0.23-1.85-0.35-2.78-0.52c-0.04,0.12-0.07,0.24-0.11,0.36
			c0.38,0.2,0.76,0.39,1.24,0.64c-0.51,0.88-1.33,0.38-1.95,0.43c-1.53,0.11-3.06,0.11-4.59,0.15c-0.62,0.02-1.25-0.02-1.86,0.04
			c-1.19,0.12-2.43,0.19-3,1.73c-0.91-0.6-1.68-1.11-2.61-1.72c-0.35,0.03-0.98,0.1-1.6,0.16
			C210.69,144.79,210.67,144.65,210.66,144.51z"/>
		<path d="M246.94,130.99c-0.26-0.18-0.58-0.52-0.73-0.46c-0.86,0.38-0.68-0.37-0.71-0.68c-0.22-2.08,0.63-3.57,2.52-4.48
			c2.05-0.99,2.18-0.95,3.54,0.81c0.21,0.28,0.57,0.45,0.89,0.63c0.95,0.55,1.27,1.73,1.1,2.83c-0.32,2.18-1.95,3.05-3.59,3.9
			c-1.24,0.65-3.08-0.35-3.32-1.74C246.6,131.57,246.82,131.29,246.94,130.99z"/>
		<path d="M202.58,128.88c-0.31,1.03-0.81,2.12-1.86,2.59c-3.11,1.39-5.49-2.81-5.21-4.78c0.28-1.96,1.87-3.66,4.03-3.44
			c0.9,0.09,1.96,0.07,2.65,0.49c1.19,0.74,1.16,2.1,0.89,3.23C203.02,127.2,202.7,128.47,202.58,128.88z"/>
	</g>
	<g>
		<path d="M18.37,284.11l6.02-1.51v-64.23l-6.02-1.5v-1.51h53.69v18.06h-3.01c-1.27-1-2.38-2.27-3.31-3.81
			c-2.14-3.61-3.21-7.53-3.21-11.74H40.95v31.61h11.54c0.47-2.54,1.34-4.92,2.61-7.13c0.53-1,1.17-1.97,1.91-2.91h3.01v22.58H57
			c-0.74-0.94-1.37-1.91-1.91-2.91c-1.27-2.21-2.14-4.58-2.61-7.12H40.95v30.61l6.02,1.51v1.5h-28.6V284.11z"/>
		<path d="M83.6,284.11l6.02-1.51v-64.23l-6.02-1.5v-1.51h53.69v18.06h-3.01c-1.27-1-2.38-2.27-3.31-3.81
			c-2.14-3.61-3.21-7.53-3.21-11.74h-21.58v31.61h11.54c0.47-2.54,1.34-4.92,2.61-7.13c0.53-1,1.17-1.97,1.91-2.91h3.01v22.58h-3.01
			c-0.74-0.94-1.37-1.91-1.91-2.91c-1.27-2.21-2.14-4.58-2.61-7.12h-11.54v31.11h23.58c0-4.22,1.07-8.13,3.21-11.74
			c0.94-1.54,2.04-2.81,3.31-3.81h3.01v18.06H83.6V284.11z"/>
		<path d="M152.34,284.11l6.02-1.51v-64.23l-6.02-1.5v-1.51h26.59c11.37,0,19.57,1.72,24.59,5.17c5.02,3.45,7.53,8.25,7.53,14.4
			c0,4.15-1.1,7.51-3.31,10.09c-2.21,2.58-5.05,4.5-8.53,5.77c-3.68,1.4-7.59,2.14-11.74,2.21v0.5c2.47,0.14,4.65,0.5,6.52,1.1
			c4.68,1.47,7.86,4.11,9.53,7.93l9.03,20.07l5.02,1.51v1.5h-14.05c-5.49,0-9.5-2.84-12.04-8.53l-10.04-22.58h-6.52v28.1l7.02,1.51
			v1.5h-29.6V284.11z M178.93,252c4.68,0,8.36-1.47,11.04-4.42c2.67-2.94,4.01-7.16,4.01-12.65c0-5.48-1.34-9.7-4.01-12.64
			c-2.68-2.94-6.36-4.42-11.04-4.42h-4.01V252H178.93z"/>
		<path d="M235.64,232.43v48.67l8.03,3.01v1.5H224.6v-1.5l8.03-3.01v-62.22l-7.03-2.01v-1.51h10.54c3.55,0,6.32,0.64,8.33,1.91
			c2.01,1.27,3.91,2.98,5.72,5.12l32.11,37.63v-40.14l-8.03-3.01v-1.51h19.07v1.51l-8.03,3.01v67.24h-3.01L235.64,232.43z"/>
		<path d="M4.82,381.8v-1.5l6.02-1.51v-64.23l-6.02-1.51v-1.5h28.6v1.5l-6.02,1.51v31.11h21.58v-31.11l-6.02-1.51v-1.5h28.6v1.5
			l-6.02,1.51v64.23l6.02,1.51v1.5h-28.6v-1.5l6.02-1.51v-30.61H27.4v30.61l6.02,1.51v1.5H4.82z"/>
		<path d="M80.59,380.29l6.02-1.51v-64.23l-6.02-1.51v-1.5h53.69v18.06h-3.01c-1.27-1-2.38-2.27-3.31-3.81
			c-2.14-3.61-3.21-7.53-3.21-11.74h-21.58v31.61h11.54c0.47-2.54,1.34-4.92,2.61-7.12c0.53-1,1.17-1.97,1.91-2.91h3.01v22.58h-3.01
			c-0.74-0.94-1.37-1.91-1.91-2.91c-1.27-2.21-2.14-4.58-2.61-7.13h-11.54v31.11h23.58c0-4.22,1.07-8.13,3.21-11.74
			c0.94-1.54,2.04-2.81,3.31-3.81h3.01v18.06h-55.7V380.29z"/>
		<path d="M145.32,380.29l6.02-1.51v-64.23l-6.02-1.51v-1.5h26.59c11.37,0,19.57,1.72,24.59,5.17c5.02,3.45,7.53,8.25,7.53,14.4
			c0,4.15-1.1,7.51-3.31,10.09c-2.21,2.58-5.05,4.5-8.53,5.77c-3.68,1.41-7.59,2.14-11.74,2.21v0.5c2.48,0.14,4.65,0.5,6.52,1.1
			c4.68,1.47,7.86,4.11,9.53,7.93l9.03,20.07l5.02,1.51v1.5H196.5c-5.49,0-9.5-2.84-12.04-8.53l-10.04-22.58h-6.52v28.1l7.02,1.51
			v1.5h-29.6V380.29z M171.91,348.18c4.68,0,8.36-1.47,11.04-4.42c2.68-2.94,4.01-7.16,4.01-12.64c0-5.48-1.34-9.7-4.01-12.64
			c-2.68-2.94-6.36-4.42-11.04-4.42h-4.01v34.12H171.91z"/>
		<path d="M224.6,324.09v53.19l8.03,3.01v1.5h-19.07v-1.5l8.03-3.01v-62.72l-6.02-1.51v-1.5h12.54c3.48,0,6.24,0.72,8.28,2.16
			c2.04,1.44,3.8,3.56,5.27,6.37l21.88,41.85l16.76-41.85c1.14-2.94,2.68-5.1,4.62-6.47c1.94-1.37,4.92-2.06,8.93-2.06h10.54v1.5
			l-6.02,1.51v64.23l6.02,1.51v1.5h-28.6v-1.5l6.02-1.51v-54.69l-23.58,58.71h-3.01L224.6,324.09z"/>
	</g>
</g>
</svg>
