<?xml version="1.0" encoding="utf-8"?>
<!-- Generator: Adobe Illustrator 26.3.1, SVG Export Plug-In . SVG Version: 6.00 Build 0)  -->
<svg version="1.1" id="Layer_1" xmlns="http://www.w3.org/2000/svg" xmlns:xlink="http://www.w3.org/1999/xlink" x="0px" y="0px"
	 viewBox="0 0 290.6 189.4" style="enable-background:new 0 0 290.6 189.4;" xml:space="preserve">
<g>
	<path d="M132.3,142.3c2.4,0.3,3.7-3.7,1.6-4.9c1.2-0.4,1.9-1.9,1.5-3.1c-0.7-0.6-1.5-1.2-2.2-1.8c-0.5-0.4-1.1-0.9-1.6-1.3
		c0.9-2,0.4-4.5-1.2-6.1c0.7-0.2,1.5-0.3,2.2-0.5c0.1-0.7,0.2-1.4,0.3-2.1c-1.1-0.7-2.5-1-3.8-0.9c-1.2-0.9,0.8-2.5,2.2-2.1
		c1.4,0.4,2.9,1.5,4.1,0.6c-2-1.2-4.2-2.1-6.5-2.7c1.7-0.7,3.1-2.2,3.7-4c-2.4,0.1-4.8,0.3-7.3,0.4c0.5-0.1,0.7-0.6,0.6-1.1
		c-0.1-0.4-0.3-0.8-0.5-1.1c-0.7-0.7-1.6-1.5-1.2-2.3c0.2-0.5,0.8-0.8,0.9-1.3c0.2-0.9-0.9-1.4-1.6-2c-1.2-1-1.2-2.7-1.5-4.2
		c-0.3-1.5-1.4-3.2-2.9-2.9c0.3-1.1,1.1-2,2.1-2.5c-0.9-2.7-1.8-5.3-2.7-8c-0.3-0.8-0.6-1.7-0.5-2.6c0.8,0.9,1.3,2.1,1.2,3.3
		c1.3-3.2-2.7-6.9-5.8-5.4c0.3-1.1,0.6-2.1,0.8-3.2c-0.5-0.5-1.1-0.8-1.8-0.8c-0.5,1-0.8,2.2-0.8,3.3c-0.7-1.2-2.6-0.7-3.9-0.2
		c-1.3,0.5-3.5,0.3-3.5-1.1c-1.5,1.1-0.9,4,1,4.2c-1.5,1.2-4.2,0.1-4.5-1.8c-0.8-0.6-1.9,0.3-2.1,1.3c-0.2,0.9-0.1,2-0.5,2.9
		c-0.6,1.3-2.3,1.7-3.5,2.6c-1.5,1.1-2.3,3-3.4,4.6c-1.1,1.5-3.2,2.9-4.9,2c-0.1,2-0.1,3.9-0.2,5.9c-0.4-2.8-1.3-5.5-2.7-8
		c-0.1-0.7-0.1-1.3-0.2-1.9c-1.7,1.1-3.3,2.2-4.9,3.3c0.1-1.2,0.3-2.3,0.5-3.5c-1.8,0.5-3.2,2.2-3.3,4c-1.6-0.1-3.2,0.8-3.8,2.3
		c0.3-3.5,0.7-7,1-10.5c0.1-0.5,0.1-1.1,0.4-1.5c0.3-0.4,0.8-0.6,1.2-0.8c5.6-2.6,10.5-6.7,14.2-11.7c-5.4-0.1-11,2.6-14.1,7
		c-0.2,0.2-0.9,1.1-1.2,1.1c0-1.5,0.2-5.1,0.2-6.4c0.2-0.1,0.3-0.2,0.5-0.4c0.2-0.2,0.8-0.3,1-0.4c3-1,5.9-2,8.7-3.4
		c3-1.4,5.8-3,8.7-4.5c1.2-0.6,2.3-1.2,3.6-1.5c1.3-0.2,2.6-0.6,3.9-1.1c1-0.4,1.3-1.7,0.5-2.3c-1.4-1.1-2.7-1.1-4.4-1.1
		c-1.7,0-3.4,0.1-5.1,0.1c-0.5,0-1,0-1.5,0.2c-0.8,0.2-1.5,0.7-2.1,1.2c-2.3,1.7-4.4,3.6-6.6,5.4c-2.2,1.7-4.5,3.7-7.2,4.5
		c0.2-0.1-0.1-1.3-0.1-1.4c-0.2-1.1-0.1-2.1-0.1-3.3c0-1.5,0-3-0.2-4.5c-0.2-1.5-0.6-3-0.5-4.5c0.1-0.8,1-0.6,1.6-0.7
		c1.2-0.3,2.4-0.8,3.5-1.2c2.4-0.9,4.6-1.9,7-2.9c2.5-1.1,5.1-2.2,7-4.2c0.3-0.3,1.4-1.5,1.2-2c-0.2-0.5-2-0.4-2.5-0.4
		c-2.9,0.2-5.8,0.4-8.7,1c-0.6,0.1-1.2,0.3-1.8,0.5c-0.6,0.3-1.1,0.6-1.6,1c-1.2,1-2.3,2.2-3.5,3.2c-0.7,0.6-2.4,2.2-3.4,1.5
		c-0.4-2-0.7-4-1.4-5.8c-0.3-0.7-0.9-1.5-0.8-2.2c0.2-1.3,2.4-1.6,3.4-2.1c1.4-0.7,2.7-1.7,4-2.7c2-1.5,4-3,5.6-4.9
		c0.5-0.6,1-1.2,1.3-1.9c0.3-0.6,0.5-1.1,0.6-1.7c0.2-0.6,0.4-1.2,0.6-1.9c0.1-0.3,0.2-0.7,0.2-1c-0.1-0.9-1.4-1-2.1-1.1
		c-1-0.1-1.9,0.2-2.7,0.8c-0.3,0.1-1.2,1.4-1.5,1.7c-0.6,0.6-1.3,1.3-1.9,1.9c-1.3,1.3-2.5,2.7-3.6,4.1c-0.6,0.8-1.2,1.7-1.9,2.5
		c-0.7,0.9-1.6,1.5-2.3,2.3c-0.5,0.5-1.2,0.6-1.4,0c-0.8-2.2-1.2-4.5-1.3-6.8c0-1.6,0.2-3.2,1-4.6c0.5-0.8,1.1-1.5,1.6-2.3
		c0.5-0.8,1-1.6,1.5-2.3c0.9-1.1,2.1-1.9,3.5-2.4c0.5-0.2,1-0.3,1.5-0.5c1.6-0.8,1.8-2.9,0.8-4.2c-0.6-0.8-1.5-1.2-2.4-0.8
		c-0.4,0.2-0.8,0.5-1.1,0.8c-0.9,0.7-1.7,1.5-2.6,2.2c-0.3,0.2-0.6,0.5-0.8,0.8c-1,1.1-1.3,2.5-2.1,3.7c-0.8,1.2-1.8,2.2-2.2,3.6
		c-0.2,0.5-0.7,0.6-1.1,0c-1.2-1.6-2.6-3.1-4-4.6c-0.8-0.8-1.6-1.9-2.7-2.3C56,23.6,55,24.6,54.9,26c-0.1,2,0.7,3.9,1.8,5.6
		c1.9,2.8,4.3,5.3,6.4,7.9c0.5,0.6,1.1,1.2,1.6,1.9c0.9,1,1.2,2,1.6,3.3c0.4,1.4,1.2,2.8,1.8,4.2c0.7,1.5,1.3,2.9,1.8,4.4
		c0.3,0.8,0.5,1.5,0.7,2.3c0.1,0.6,0.4,1.6,0.3,2.3c-1.8-0.9-3.4-2.1-5.2-3c-4.5-2.4-9.3-4.1-13.9-6.2c-1.5-0.7-2.9-1.4-4.5-1.9
		c-0.8-0.2-1.5-0.5-2.3-0.5c-0.4,0-0.9-0.1-1.2-0.1c-0.3,0.1-0.7,0.3-1,0.4c1.4,2.2,3.3,4.1,5.8,5.2c1.8,0.9,3.8,1.3,5.5,2.3
		c1.2,0.6,2.2,1.5,3.2,2.2c1.9,1.5,3.9,2.9,6.1,4c2.7,1.3,5.3,1.9,8.3,2c0.2,0,0.3,3.6,0.4,3.8c0,0.3,0.1,8.6,0.3,8.8
		c-0.3,0.4-2.6-1.3-2.9-1.4c-1.2-0.6-2.6-0.9-4-1.2c-5.7-1.2-11.1-3.6-16.6-5.5c-2.8-1-5.7-1.5-8.5-2.4c-2-0.6-3.9-0.4-5.9-0.7
		c-1.5-0.2-0.1,2.9,0.2,3.4c0.1,0.2,0.3,0.5,0.5,0.7c0.2,0.2,0.6,0.4,0.9,0.5c2.1,0.9,4,2.1,6,3.1c2.1,1,4.3,1.8,6.6,2.3
		c2.1,0.5,4.3,0.7,6.5,0.9c1,0.1,2,0.2,3.1,0.3c3.7,0.4,7.4,0.9,11.2,1.2c1.5,0.1,3.3,0.2,3.4,2.1c0,1.3,0,2.7-0.3,4.4
		C70,82,67.5,81.5,65,81.1c-3.2-0.6-6.6-1.2-9.8-0.2c3.2,4.2,9.4,3.9,14.6,4.7c0.6,0.1,2.1,0,2.7-0.5c0,0-0.5,2.5-0.5,3.2
		c-0.1,1.9-0.8,3.8-1.8,5.5c0.4-0.6-0.4-2.5-0.7-3c-0.5-0.9-1.2-1.8-2.1-2.2c-0.6,2-1.1,4-1.7,6c-0.3,0.9-0.6,1.9-1.3,2.5
		c-0.7,0.6-2,0.7-2.5-0.1c0.5-1.4,0.9-2.8,1.4-4.2c-2.8,2-4.3,5.6-3.9,9c-0.6-2.3-0.5-4.8,0.4-7c-3.2,1.2-5.8,3.8-7.2,6.9
		c-0.2-0.8-0.4-1.6-0.7-2.4c-1.7,1.3-2.3,3.8-1.5,5.8c-1.4,0.2-1.6-2-1.1-3.3c0.5-1.3,0.7-3.3-0.7-3.5c0.6-0.2-1.1,0-2.5,0.3
		c0.2-1.1,1-2.2,2-2.6c-3.2,0.2-6,2.9-6.5,6c-0.5-2.7-1-5.4-1.5-8.1c-0.1-0.8-0.3-1.6-1-2c-0.5-0.4-1.2-0.4-1.8-0.7
		c-0.6-0.3-0.9-1.2-0.3-1.5c-1.7-0.2-3.4-0.4-5.1-0.6c0.1-2.4-3.4-4-5.1-2.4c-0.5,0.5-0.9,1.2-1.6,1.2c-0.5,0-1-0.4-1.6-0.4
		c-0.7,0-1.3,0.6-1.7,1.2c-2,2.8-4.1,5.6-6.1,8.4c-0.8,0.6-0.1,1.9,0.8,2.4c0.9,0.5,2,1.1,1.9,2.2c-0.1,1.3-2,1.5-3.2,0.9
		c-0.7-0.3-3.4-2-3.8-0.7c-0.5,1.6,2.1,1.3,2.3,1.6c0.8,1.1,1.6,2.2,2.4,3.3c-1.8,0-3.6,0.1-5.4,0.1c-1.7,2.3-0.6,6.1,2.1,7.1
		c0.9,0.3,2,0.4,2.5,1.2c0.8,1.3-1,3-2.5,2.6c-1.5-0.4-2.5-1.8-3.3-3.1c-1,1-0.7,2.8,0.2,3.9c0.9,1.1,2.3,1.7,3.6,2.3
		c-1.6,0.1-3.4,0.3-4.6,1.3c-1.2,1-1.6,3.3-0.2,4.2c-1.4,0.7-2.5,2.1-2.7,3.7c1.4,0.3,2.9,0.7,4.3,1c-1.8,0.7-3.5,1.5-5.3,2.2
		c1,0.3,2.1,1.9,1,2c0.9,0.2,1.8,0.4,2.7,0.6c-1.9,0.9-3,3.2-2.2,5.2c0.8,1.9,3.6,2.8,5.1,1.4c-1.7,1.9-3.5,3.9-5.2,5.8
		c-0.5,0.5-0.9,1.1-0.7,1.8c0.5,1.3,3.2,0.4,3.4,1.8c-2.8,0.4-5.6,0.3-8.3-0.4c-0.8,0.9-0.3,2.4,0.7,3c1,0.6,2.2,0.6,3.4,0.6
		c-0.3,2,0,4.1,0.8,6c-1.1,1.2-3.4,1-4.3-0.3c0.2,2.7,4.1,4.2,6.1,2.4c0,1.6,1.4,3.1,3,3.2c0.2,1.1,0.2,2.4-0.5,3.3
		s-2.2,1.3-2.9,0.4c-0.1,2.5,3.5,4.1,5.3,2.3c-1.1,1.7,0.8,4.4,2.8,4c0.2,0.9,0.7,1.6,1.4,2.2c1.1-1.4,2.6-2.6,4.2-3.3
		c-1.1,1.6-1.3,4-0.1,5.6c1.2,1.6,3.7,2.1,5.2,0.8c0.8,0.3,1.7,0.6,2.5,0.9c-1,0.5-1.8,1.4-2,2.5c1.5,0.2,3,0.5,4.4,0.1
		c1.4-0.4,2.7-1.6,2.8-3.1c1,0.7,0.9,2.4-0.2,3c2.7,1.6,6.2,1.8,9.1,0.7c1.4,2.9,5.2,3.9,8.4,3.1s5.7-2.9,8.2-4.9
		c-0.1,0.9,1.2,1.5,1.8,0.9c-0.2,1.3,0.3,2.7,1.3,3.6c1.4-0.8,2.8-1.7,4-2.8c0.4,1,0.8,1.9,1.1,2.9c1.2-1.3,2.4-2.6,3.6-3.9
		c-0.9,0.1-1.8,0-2.6-0.4c1.4-0.8,3.1,0.3,4.5,1c1.4,0.7,3.8,0.7,4.1-0.8c0.5,1,1.9,1.3,2.7,0.6c-1.2-0.2-0.8-2.4,0.5-2.6
		c1.2-0.2,2.3,0.8,3,1.8c0.7,1,1.5,2.2,2.7,2.5c1.1-2.4,4.8-3.2,6.7-1.4c0.7-0.6,0.9-1.8,0.3-2.6c1-0.5,2.3,1,1.6,1.9
		c2.5,0.1,5,0.2,7.5,0.3c1.9,0.1,4.1,0,5.2-1.5c-0.7-0.9-1.4-1.9-2.1-2.8c1.6,1,4,0.1,4.8-1.6c0.3-0.8-0.4-1.7-0.5-2.5
		c-0.2-1.8,2.5-2.4,4.3-2.1c1.8,0.3,4.4,0.3,4.8-1.5c0.8,0.8,1.6,1.5,2.5,2.3c1.5-2.1,0.7-5.5-1.7-6.7c1.7-0.6,3.5,2.8,4.8,1.6
		c0.8-0.8,0-2.1-0.8-2.9c-0.8-0.8-1.4-2.4-0.4-2.8c1.4,2,3.5,3.4,5.8,4.2c-0.2-2.3-1.5-4.5-3.5-5.7c1.9,0.1,3.7-1.7,3.5-3.6
		c1,0.7,2.4-0.4,2.5-1.5c0.1-1.2-0.6-2.3-1.3-3.2c1.8,1.8,5.5-0.3,4.9-2.8c1.6,1.2,3.7-1.5,2.8-3.2c-0.9-1.7-3.2-2.1-5.2-1.9
		c2-0.8,4.2-1.1,6.3-0.8c0.5-0.7,0.4-1.7-0.1-2.2C136.6,143.9,134.1,143.6,132.3,142.3z M77.1,82.1c0.4-0.5,0.9-0.9,1.3-1.4
		c0.2-0.3,0.5-0.6,0.3-0.9c0-0.1-0.1-0.2-0.1-0.2c0,0,0.1-0.1,0.1-0.1c0.3-0.1,0.6,0.1,0.9,0.2c0.4,0.1,0.9-0.4,0.8-0.8
		c-0.1,0-0.2,0-0.4,0S80,78.6,80,78.5c0.7-0.1,1.3-0.1,2-0.1c-0.4,0.6-0.9,1.3-1.4,1.9c-0.2,0.2-0.3,0.5-0.6,0.7
		c-0.3,0.2-0.7,0.3-1,0.5c-0.5,0.4-0.7,1.1-1.3,1.3C77.3,82.9,76.8,82.5,77.1,82.1z M91,66.5c1.1-0.3,2.2-0.6,3.3-0.9
		c0.1,0,0.2,0.1,0.5,0.2c-1.2,0.5-2.3,1-3.4,1.4c-0.2,0.1-0.4-0.1-0.7-0.2C90.9,66.9,90.9,66.6,91,66.5z M80.2,33
		c0.2-0.2,0.4-0.3,0.5-0.5c0.2-0.3,0.5-0.5,0.8-0.7c0.2-0.1,0.5-0.2,0.7-0.1c0.3,0.1,0.5,0.4,0.6,0.7c0,0.1,0.1,0.2,0.1,0.3
		c0,0.1,0,0.2-0.1,0.2c-0.2,0.5-0.6,1.1-1.2,1.2c-0.3,0-0.5,0-0.8,0c-0.3,0.1-0.5,0.2-0.8,0.4c-0.5,0.3-1.3,0.6-1.9,0.4
		C78.8,34.1,79.6,33.6,80.2,33z M75.5,38.4c0.1-0.1,0.1-0.1,0.2-0.2c0.4-0.4,1-0.6,1.4-0.8c0,0.7-0.3,1.3-0.7,1.8
		c-0.4,0.5-1.1,1-1.7,0.8C74.7,39.6,75.1,38.9,75.5,38.4z M73.2,22.4c0.2-0.8,0.9-0.8,1.4-0.7c0.4,0.1,0.6,0.7,1.2,1.4
		c-0.6,0.3-1,0.6-1.3,0.7c-0.6,0.2-1.3,0.2-1.9,0.4C72.7,23.6,73,23,73.2,22.4z M66.3,60c-0.6-1.1-1.8-0.8-2.6-1.4
		c-0.3-0.2-0.7-0.4-1.1-0.5c0-0.1,0.1-0.2,0.1-0.3c1.8,0.4,3.6,1,4.9,2.6C67.2,60.3,66.5,60.3,66.3,60z M51.2,69.3
		c-1-0.3-2.1-0.6-3.3-1c0.4-0.5,0.6-0.7,0.8-1.1c0.9,0.6,1.8,1.1,2.7,1.7C51.3,69,51.3,69.2,51.2,69.3z M51.6,69.2
		c1.3-0.7,1.9,0.5,3,0.8C52.7,70.2,52.5,70.1,51.6,69.2z M69.1,84.4c-0.6,0-1.2-0.1-1.9-0.2c-0.8-0.1-1.7-0.4-2.5-0.5
		c-0.5-0.1-1-0.1-1.5-0.2c-0.5-0.1-1.1-0.1-1.6-0.2c-0.5-0.1-0.9-0.3-1.4-0.4c-0.8-0.1-1.1-0.6-1.3-1.5c1.5,0.3,2.9,0.7,4.2,0.8
		c2.5,0.2,4.7,1.7,7.2,1.2c0.8-0.1,1.2,0.2,1.6,0.8C72,84.4,70,84.5,69.1,84.4z M11.4,123.8c0.9,0.3,1.8,0.3,2.7,0.4
		c0,0.1,0,0.3,0,0.4c-1.5,0-3,0.1-4.5,0.1C9.8,123.6,10.3,123.4,11.4,123.8z M10,128.9c-0.3,0-0.7-0.2-1-0.3
		c-0.2-0.1-0.4-0.2-0.6-0.3c0.1-0.2,0.2-0.4,0.3-0.6c0.2-0.2,0.4-0.3,0.8-0.5c0,0.2-0.1,0.3-0.1,0.4c0.8-0.2,1.8-0.4,2.8-0.6
		c1,0.7-0.3,1.2-0.2,1.8C11.4,128.9,10.7,128.9,10,128.9z M15.1,136c-0.6,0.8-1.3,1.6-1.9,2.4c-0.3,0.3-0.6,0.6-0.9,0.9
		c-0.2,0.2-0.6,0.2-0.9,0.2c0.1-0.4,0.1-0.7,0.3-1c0.3-0.5,0.7-0.9,1-1.3c0.5-0.2,0.8-0.5,1.1-1.2c0.3-0.7,1.2-1.2,1.9-1.7
		c0.1,0.1,0.3,0.2,0.4,0.3C15.8,135.1,15.4,135.6,15.1,136z M19.4,94.4c0.3-0.2,0.5-0.4,0.7-0.6c0.8-0.9,1.1-0.9,1.7,0.1
		c0.2,0.4,0.5,0.9,0.7,1.3C21.3,96.1,20.4,95.5,19.4,94.4z M28.1,86.6c0-0.1,0-0.2,0-0.3c0.4,0.2,0.9,0.3,1.2,0.6
		c0.3,0.3,0.4,0.8,0.6,1.2c0,0-0.2,0.3-0.3,0.3c-0.2,0-0.3-0.1-0.4-0.3C28.8,87.6,28.4,87.1,28.1,86.6z M32.3,111.1
		c-0.5,0-1,0-1.7,0c0.2-1,0.8-2,0.6-2.8c-0.2-1-0.9-2-1.4-3c-0.1-0.1-0.3-0.2-0.4-0.3c-0.3-0.7,0.9-3.3,1.8-3.6
		c0.2,1.8,0.5,3.5,1.3,5.2C33.2,107.9,33.4,109.6,32.3,111.1z M65.8,98.3c0.1,0,0.2-0.1,0.3-0.1c0.2,0.3,0.4,0.6,0.6,0.8
		c-0.5,0.6-0.8,1.1-1.2,1.6c-0.1,0-0.1,0-0.2,0C65.5,99.8,65.7,99,65.8,98.3z M65.1,101.4c0.1,0,0.2,0,0.2,0
		c0.1,0.2,0.1,0.4,0.2,0.7c0.1,0.5,0.2,0.9,0.2,1.4c0,0.2,0,0.5-0.1,0.6c-0.1,0.1-0.5,0.2-0.6,0.1c-0.2-0.1-0.3-0.4-0.3-0.6
		C64.8,102.8,65,102.1,65.1,101.4z M62.1,100.3c0.5-0.8,1-1.7,1.6-2.7c0.3,2-1.2,3.2-1,5.1C61.7,101.8,61.7,101,62.1,100.3z
		 M52.1,102.7c0-0.3,0.4-0.5,0.6-0.7c0.1,0.3,0.5,0.8,0.4,1c-0.3,0.4,0.1,1.6,0,1.8c-0.2,0.2-0.5,0.3-0.7,0.5
		c-0.1-0.2-0.2-0.5-0.2-0.7C52.1,104.4,52.1,103.2,52.1,102.7z M47.9,185.8c0.5-0.3,1.1-0.7,1.7-1C49.6,185.9,49.1,186.2,47.9,185.8
		z M53.4,154.9c-0.1-0.2,0-0.4,0.2-0.5c0.2-0.1,0.4,0,0.5,0.2c0.3,0.9,4.1,1,7.5,0.7c0.2,0,0.4,0.1,0.4,0.3c0,0.2-0.1,0.4-0.3,0.4
		c-0.5,0.1-2,0.2-3.6,0.2C56,156.3,53.8,156,53.4,154.9z M63,158.7c-0.1,0.1-2.2,3.2-5.3,3.2c-0.2,0-0.4,0-0.6,0
		c-0.2,0-0.4-0.2-0.3-0.4c0-0.2,0.2-0.4,0.4-0.3c3.1,0.4,5.2-2.8,5.2-2.8c0.1-0.2,0.3-0.2,0.5-0.1C63.1,158.3,63.1,158.6,63,158.7z
		 M52.3,151.4c-0.6,0-1.1,0-1.7,0c-1.1,0-2.3,0.2-3.4-0.1c-1.4-0.3-2.7-1.2-3.9-2c-1.7-1.1-3.4-2.1-4.9-3.4
		c-1.5-1.3-2.8-2.9-3.2-4.9c-0.4-1.7-0.2-3.6,0.4-5.3c0.6-1.7,1.4-3.7,2.4-5.2c1.1-1.5,3.3-2.8,4.9-3.7c1.9-1.1,4-1.8,6.1-1.7
		c3.7,0.1,6.8,2.5,9.8,4.7c1.1,0.8,2.1,1.5,2.9,2.6c0.8,1.2,1.1,2.8,1.5,4.2c0.6,2.6,1.5,5.4,0.9,7.9
		C57.7,146.1,53,149.8,52.3,151.4z M77.7,153.7c-0.6,0.2-1.3,0.3-2,0.4s-1.4,0.4-1.8,0.9c-0.3,0.5-0.4,1-0.3,1.6
		c0,0.5,0.1,1.1,0,1.6c-0.1,0.5-0.4,1.1-0.9,1.2c-1.4,0.5-1.3-1.8-1.5-2.6c-0.4-1.1-1.1-2.4-2.2-2.8c-0.8-0.3-1.7-0.3-2.6-0.4
		c-0.9-0.1-2.5-0.6-2.2-1.8c0.5-1.6,2.5-1,3.5-0.7c1.6,0.6,3.4,0.8,5,0.5c1.9-0.3,3.9-1,5.8-0.4c0.1,0,0.2,0.1,0.2,0.1
		c0,0,0.1,0.1,0.1,0.1c0.2,0.2,0.2,0.4,0.2,0.6C78.9,152.9,78.3,153.5,77.7,153.7z M105.2,96.4c0.2,0,0.3,0,0.4,0
		c0.1,0.5,0.2,1,0.4,1.5c0.2,0.6,0.6,1.1,0.8,1.7c0.1,0.3,0.1,0.7,0.1,1c0.1,0.6,0.2,1.2,0.4,1.7c0.2,0.9,0.4,1.8,0.6,2.6
		c0.1,0.4,0.4,0.8,0.6,1.2c-0.7,0.6-1.1,0.5-1.4-0.3c-0.1-0.4-0.1-0.9-0.2-1.4c-0.5-1.6-1-2.1-2.6-1.5c-0.9,0.4-1.6,0.3-2.3,0
		C103.2,100.8,104.2,98.6,105.2,96.4z M103.1,88.2c-1.1-0.1-1.7-0.6-1.8-1.8C102.3,86.8,103.1,87.1,103.1,88.2z M96.2,93.2
		c0.2,1,0.4,2,0.5,3c0,0.3-0.3,0.6-0.5,0.9c-0.2-0.2-0.6-0.4-0.7-0.7c-0.2-0.5-0.4-1.1-0.5-1.7C94.8,94,95.2,93.5,96.2,93.2z
		 M85.7,162.2c-0.2,0-0.4,0-0.6,0c-3.2,0-5.2-3-5.3-3.2c-0.1-0.2-0.1-0.4,0.1-0.5c0.2-0.1,0.4-0.1,0.5,0.1c0,0,2.2,3.2,5.2,2.8
		c0.2,0,0.4,0.1,0.4,0.3C86.1,162,85.9,162.2,85.7,162.2z M89.4,155.3c-0.4,1.1-2.6,1.4-4.7,1.4c-1.6,0-3-0.1-3.6-0.2
		c-0.2,0-0.4-0.2-0.3-0.4c0-0.2,0.2-0.4,0.4-0.3c3.4,0.4,7.2,0.2,7.5-0.7c0.1-0.2,0.3-0.3,0.5-0.2C89.3,154.9,89.4,155.1,89.4,155.3
		z M102.9,182.3c-0.8-0.2-1.6-0.3-2.4-0.5c-0.2-0.1-0.3-0.5-0.5-0.7c0.3-0.1,0.6-0.2,0.8-0.1c0.8,0.2,1.5,0.5,2.3,0.8
		C103,182,103,182.1,102.9,182.3z M109,175.9c-0.4,0-0.9,0.2-1.1,0c-0.3-0.3-1.3-0.2-0.7-1.3c0.7,0.3,1.2,0.6,1.8,0.9
		C109,175.7,109,175.8,109,175.9z M108.6,147.6c-0.6,0.9-1.6,1.5-2.5,2c-1.3,0.9-2.6,1.9-4.1,2.5c-2,0.7-5,1.2-7.1,1.2
		c-0.6,0-1.2,0-1.7-0.1c-0.7-1.5-2.8-5.6-8.8-7.6c-0.2-0.7-0.4-1.4-0.5-2.1c-0.2-1.3-0.2-2.6-0.2-4c0-1.5,0-3,0.5-4.3
		c0.5-1.2,1.5-2.2,2.4-3.2c1.3-1.4,3-2.3,4.5-3.4c2-1.3,4.6-2.2,7.1-2c1.8,0.2,3.3,1.3,4.8,2.3c2.8,2,5,4.1,5.9,7.6
		c0.5,1.9,0.6,3.9,0.6,5.9C109.4,144.3,109.6,146.2,108.6,147.6z M108.2,110.1c-0.4-0.6-0.7-1-1-1.4c0.3-0.2,0.7-0.6,1-0.7
		c0.7-0.1,1.3,0.4,1.3,1.2C109.5,109.4,108.8,109.7,108.2,110.1z"/>
	<path d="M50.3,132.6c-0.1,0-0.1,0-0.2,0c-4.1,0.1-9.7,5-6.5,9.2c1,1.3,2.7,1.8,4.3,2.2c0.6,0.2,1.2,0.3,1.8,0.2
		c0.6-0.1,1.1-0.4,1.6-0.7c1.2-0.7,2.4-1.5,3.6-2.3c0.5-0.4,1-0.7,1.4-1.2c0.6-0.9,0.6-2.2,0.2-3.3
		C55.5,134.3,52.9,132.7,50.3,132.6z"/>
	<path d="M100.2,136.3c-1-0.6-2.2-1-3.4-1.1c-0.5,0-0.9,0-1.4,0c-1.4,0.2-2.9,0.8-3.9,1.9c-1,1.1-1,2.8-0.7,4.1
		c0.3,1.2,0.8,2.4,1.3,3.5c0.2,0.4,0.3,0.7,0.6,1c0.2,0.2,0.5,0.2,0.8,0.3c1.6,0.3,3.2-0.1,4.6-0.8c1.4-0.7,2.6-1.8,3.9-2.8
		c0.3-0.2,0.5-0.5,0.7-0.8c0.2-0.3,0.2-0.7,0.1-1C102.8,138.8,101.6,137.2,100.2,136.3z"/>
	<path d="M285.4,33.2c-5.1-11.5-22.5,5.8-26.6,10.3c-8.3,9-14.7,19.9-18.6,31.4c-0.2,0.8-2.9,10.3-3.9,10c-1.1-0.3-2.4-0.6-3.7-1
		c-7.2-2-14.4-4.3-21.8-5.6c-1.4-0.2-2.8-0.4-3.6-1.8c-1.8-3.5-2.5-7-2.6-10.9c0-0.2,0.5-0.5,0.7-0.5c1.5,0.1,3,0.5,4.6,0.6
		c1.6,0.1,3.3,0.2,4.9,0.1c1.4,0,4.6,0.1,4.8-1.9c0.1-0.9-0.5-1.7-1.2-2.1c-0.7-0.5-1.6-0.7-2.5-0.8c-3.8-0.8-7.5-1.3-11.2,0
		c0.2-1.4,0.6-2.7,1-4.1c0.2-0.6,0.3-1.3,0.5-1.9c0.1-0.4,0.3-0.7,0.5-1c0.3-0.5,0.7-1.3,1-1.3c0.9-0.1,1.8,0.1,2.7,0.4
		c5.3,1.5,9.2,3.3,14.7,0.6c0.4-0.2,0.8-1,0.8-1.5c-0.1-3.5-8.6-3.4-11-3.2c-2.5,0.3-4.2,1.4-6.7,1.1c0.2-0.6,1.9-5,2.6-4.9
		c0,0,5.3-0.7,9-0.8c3.4-0.1,6.7-0.6,9.9-1.4c4.2-1.1,7.1-2.8,10.6-5.3c0.6-0.4,0.8-0.8,0.5-1.5c-0.3-0.8-0.8-1.3-1.6-1
		c-2.8,0.8-6.4-1-9.5-0.4c-2.7,0.5-5.2,1.6-7.8,2.7c-3,1.2-6.1,2.2-8.9,3.8c0-0.2-0.1-0.4,0-0.5c0.4-0.9,2.2-5.5,2.2-5.5
		c0.2-0.6,0.2-0.9,0.7-1.1c0.5-0.2,0.9-0.4,1.4-0.6c3,0.1,6.4-1,8.9-2.8c2.8-2,5.1-4.5,7.4-7c3.9-4.2,2.1-8.8-3.3-5.6
		c-1,0.6-1.9,1.3-2.7,2.1c-3,2.9-5.8,6.1-8.9,8.9c-0.2,0.2-0.7,0.4-0.9,0.3c-0.3-0.1-0.6-0.6-0.5-0.9c0.2-0.8,0.3-5.9,0.2-7.7
		c0.1,0.1,5-4.5,5.5-5.1c1.1-1.4,2-3.1,2.9-4.7c0.4-0.7,0.8-1.5,1.2-2.2c0.8-1.5,1.8-3.1,2.1-4.8c-3.2-0.6-5.6,3.2-8.2,4.5
		c-0.6,0.3-1.2,0.5-1.7,0.9c-0.5,0.4-0.7,1.2-0.2,1.7c-0.8-0.1-1.5,0.5-1.8,1.2c-0.5,1.1-0.1,1.8-1.1,2.5c-0.6-0.4-1.1-1.1-1.2-1.8
		c-0.4-2.3-0.7-4.4,0.1-6.7c0.4-1.1,0.6-2.6-0.3-3.4c-1.4-1.3-4.7-0.3-4.1,1.8c0.4,1.3,0.7,2.6,1,4c-1-0.8-2.2-1.4-3.2-2.3
		c-0.9-0.8-1.7-0.5-2.5-0.2c0.7,0.9,0.7,0.9,1.4,1.8c0,0.1,0.9,0.9,1,1c0.8,0.4,1.7,0.7,2.2,1.3c0.4,0.5,1,1.2,1.3,1.6
		c0,0,0.1,0.1,0.2,0.1c0.9,1.4,1.9,2.8,2.8,4.2c0.2,0.2,0.2,0.6,0.3,1.1c0,0-15.4-5-16.7-4.6c-0.7,0.2-1,1.4-0.3,1.7
		c-7.4,0.9,1.6,4.4,4.3,4.7c2.8,0.4,5.6,1,8.4,1.1c0.7,0,5-0.8,5.1-0.7c0.9,1.1,1,2.3,0.8,4c-0.1,1-0.4,2.1-0.5,3.2
		c-0.1,1-0.8,1.8-1.5,1.5c-7-2.5-13.8-4.2-21.2-2.9c-0.8,0.2-0.8,0.2-0.5,1.1c0.2,0.7,1.2,1.9,1.3,2c0.8,0.5,2.2,0.7,3,1
		c2.3,0.8,4.8,1.6,7.2,2c1.6,0.2,3.3,0.4,5,0.5c1.3,0.1,2.6,0.4,3.5,0.4c1,0,2.1-0.4,1.8,0.5c-0.2,0.7-0.6,2.3-0.9,2.9
		c-0.1,0.2-0.3,0.6-0.4,0.8c-0.5,1.4-1.2,2.8-1.9,4.2c-0.2,0.3-0.8,0.7-1.2,0.7c-6.6-0.7-11.2-0.9-17.1-4.4
		c-4.3-2.6-8.6-5.1-13.6-5.9c-2.9-0.4-1.9,2.4-1,4c1.5,2.8,3.4,3.7,5.5,5.7c0.5,0.5,1,1.1,1.6,1.4c0.5,0.3,1.1,0.5,1.7,0.6
		c6.6,1.8,13.3,2.7,20.1,2.3c0.7,0,1.1,0.2,0.8,1c-0.1,0.4-1.2,2.7-1.6,3.7c-1.4,3.7-9.1,2.2-11.8,2.3c-4.5,0.1-9.1,1-12.7,4
		c1.6,2.1,3.1,3.5,6.3,3.6c2,0,3.9-0.6,5.6-1.6c4.1-2.5,7-3.2,10.4-3.4c-0.2,0.7-0.4,1.4-0.6,2.1c-0.4,1.6-0.8,3.3-1.3,4.9
		c-0.1,0.2-0.3,0.4-0.5,0.5c-0.1,0.1-0.3,0.2-0.5,0.3c-0.5,0.3-1.5,0.2-2.1,0.2c-0.8,0.1-1.6,0.2-2.4,0.4c-1.6,0.3-3.1,0.8-4.6,1.5
		c-0.6,0.3-5.9,2.6-4.4,3.7c0.5,0.4,0.8,0.6,1.5,0.8c0.6,0.2,1.3,0.3,1.9,0.4c1.3,0.2,2.5,0.1,3.8,0c1.4-0.2,2.8-0.8,4.2-1.1
		c0.4-0.1,0.8-0.2,1.2-0.4l1.8-1c0.5,3.6,0.8,7.7,2.4,11c-5.2,0.7-6.9,0.6-12.9,2.7c-2.4,0.8-5.6,2.4-7.5,3.3
		c-0.6-0.8-1.1-1.7-1.8-2.4c-7.4-7.2-15.7-13.8-23.3-20.9c-3.6-3.4-7.3-6.8-11.5-9.4c-5.4-3.4-11.6-5.1-17.7-6.4
		c-1.1-0.2-2.3-0.3-3.4-0.4c-1.2-0.1-2.9,0.4-3,2.3c0,0.6,0,1.3-0.1,1.9c-0.5,5.5-3.2,10.9-3.9,16.5c-0.1,0.6-0.1,1.2,0.1,1.7
		c0.2,0.4,0.5,0.8,0.7,1.2c0.3,0.7,0.3,1.6,0.3,2.4c0,5.7,2.7,11.2,6,15.8c3.3,4.7,7.3,8.8,10.6,13.6c0.8,1.2,1.5,2.4,2.3,3.6
		c0.8,1.3,1.6,2.7,2.5,4c2.2,3.6,4.4,7.3,6.1,11.2c1.3,3.1,2.1,6.5,3.7,9.5c1,2,2.2,3.9,3.3,5.8c0.2,0.4,3,5,3,5.2
		c-0.1,2.7,0,5.3-0.6,8c-0.6,3-1.6,5.9-1.9,8.9c-0.4,4.2,0.5,8.4,1.4,12.6c0.8,3.4,1.4,7.2,3.1,10.3c0.9,1.7,2.6,2.4,4.4,3.1
		c3.8,1.4,7.8,1.6,11.7,2.7c2.5,0.7,5,1.4,7.5,1c2.8-0.5,5-2.8,6.5-5.1c0.7-1.2,1.3-2.4,2.1-3.6c0.9-1.2,1.9-2.3,3-3.3
		c1.3-1.2,2.7-2.2,4.2-3c0.8-0.4,1.5-0.8,2.4-1.1c0.4-0.2,0.8-0.3,1.3-0.4c0.2-0.1,1-0.1,1.2-0.3c1.8-1.9,5-0.9,7,0.8
		c5.4,4.5,8,12.2,14.3,15.2c3.5,1.7,7.5,1.6,11.3,1.5c3.8-0.1,7.7-0.3,11-2.3c1.5-0.9,3-2.2,4.8-2.2c1.2,0,1.3,0.5,2.5,0.4
		c0.8-0.1,1.4-0.5,2-0.9c2.7-1.7,3.8-6.3,5.6-8.9c3.9-6,4.9-10.3,4.3-17.3c-0.3-3.2-0.6-6.3-1.1-9.5c-0.5-3.4-1.2-8.8-2.1-12.2
		c-0.8-3.3-2.5-4.2-3.3-7.4c-0.8-2.9,5-6.8,7.4-8.1c1.9-1,3.7-2.2,5.4-3.5c3.6-2.8,6.4-6.4,7.9-10.7c2-5.9,2.3-12.3,2.9-18.5
		c0.7-7.7,2-15.3,3.9-22.7c0.8-3.3,1.8-6.6,2-10C290.4,45.7,288,39.2,285.4,33.2z M234,19.4c-1.1,1-2.1-0.3-3.4,0
		C231.9,18.4,233.2,18.4,234,19.4z M225.1,7.1c0.1,0,0.2,0,0.3,0c-0.1,0.4,0,0.9-0.2,1.3c-0.1,0.2-0.6,0.3-0.9,0.5
		c0-0.1-0.1-0.2-0.1-0.3C224.5,8.1,224.8,7.6,225.1,7.1z M199.9,18.1c-0.8-0.2-0.3-0.5,0.2-0.6c0.5,0.2,1.1,0.5,1.7,0.7
		c0.2,0.1,0.5,0.3,0.4,0.5C201.5,18.6,200.5,18.3,199.9,18.1z M194.3,25.9c1.5-0.2,2.7-1.3,4.1-0.1
		C197.6,26.6,195.9,26.7,194.3,25.9z M182.6,34c-1.3-0.3-2.9,0-3.6-1.4c0.9-0.3,1.7-0.5,2.5-0.7c1.3,1.5,3.6,1.5,5.1,2.9
		C185.3,34.5,184,34.3,182.6,34z M191.8,39.2c0.6,0,1.2-0.2,1.8-0.1c0.4,0.1,0.8,0.5,1.3,0.9C193.3,40.7,192.5,39.8,191.8,39.2z
		 M190.2,54.8c-1,0.2-2,0.4-3,0.6c-1.3,0.3-1.5,0-1.3-1.2c1.7-0.1,3.4-0.1,5.1-0.2c0,0.1,0.1,0.2,0.1,0.3
		C190.8,54.4,190.5,54.7,190.2,54.8z M221.9,113.5c0.3-0.4,0.6-0.7,1-1c2.3-2,6.2-2.8,9.1-2.9c4-0.1,7.3,2.7,8.9,6.2
		c0,0,0.1-0.1,0.2-0.1c0.1,0,1.7-0.4,1.8-2c0-0.2,0.2-0.4,0.4-0.3c0.2,0,0.4,0.2,0.3,0.4c-0.1,1.4-1.1,2.2-1.9,2.5c0,0,0,0,0,0
		c0.7,0.1,2.7,0.3,3.5-0.6c0.1-0.2,0.4-0.2,0.5,0s0.2,0.4,0,0.5c-0.7,0.8-1.8,0.9-2.8,0.9c-0.8,0-1.4-0.1-1.5-0.1
		c-0.1,0-0.2-0.1-0.3-0.2c1.7,4.4,0.9,9.7-3.9,11.9c-0.9,0.4-1.8,0.7-2.8,1c-1.2-1.2-2.8-2.3-5-3.6c-3.9-2.3-6.9-2.9-9.2-2.9
		C219.5,120.7,220.7,115.2,221.9,113.5z M162.6,114.7c0.2,3.3,0.3,6.6,0.4,9.8c0,0.7,0.1,1.5-0.2,2.1c-0.6,1.7-1.9,2.7-2.4,4.5
		c-0.5,1.7-1,3.7-1.5,5.5c-0.3-0.2-0.5-0.3-0.5-0.5c-0.5-2.4-2.4-3.9-3.6-5.9c-3.3-5.5-4.7-12.3-7.5-18.2
		c-2.9-5.9-6.3-11.5-10.3-16.8c-4.7-6.2-10.2-12.1-12.3-19.5c-0.5-1.7-0.8-3.5-0.9-5.3c-0.3-5.8,1.8-10.5,3.4-15.8
		c0.3-1,1.1-1.6,2.5-1.5c6.4,0,11.6,4.8,16.2,8.7c3.9,3.4,7.8,6.6,11.4,10.3c1.3,1.3,2.5,2.6,3.6,4c2.1,2.6,11.7,14.3,8.9,17.7
		c-3.5,4.4-6.9,11.2-7.3,16.9C162.5,112.1,162.5,113.4,162.6,114.7z M166.8,116.6c-0.1-0.2,0-0.4,0.2-0.5c0.2-0.1,0.4,0,0.5,0.2
		c0.2,0.3,1.9,0.4,3.5,0.2c-0.7-0.2-1.9-0.8-2.3-2.1c-0.1-0.2,0.1-0.4,0.3-0.5c0.2-0.1,0.4,0.1,0.5,0.3c0.3,1.1,1.6,1.5,2,1.7
		c1.3-2.5,3.5-4.5,6.1-5.6c1.5-0.7,3.2-1.1,4.8-1c1.3,0.1,2.6,0.2,3.8,0.7c1,0.4,1.9,1,2.6,1.9c0.9,1.3,1.4,2.9,1.6,4.4
		c0.4,2.7-0.6,5.5-2.3,7.6c-1.5-0.4-3.6-0.4-6.7,0.4c-2.3,0.6-4.1,1.5-5.6,2.6c-0.2-0.1-0.5-0.2-0.7-0.4c-1.7-1-2.6-2.8-3.6-4.5
		c-0.4-0.8-0.9-1.6-0.9-2.6c0-0.7,0.1-1.4,0.4-2.1c-0.5,0-1,0.1-1.6,0.1C168.1,117.4,167,117.3,166.8,116.6z M183,184.9
		c0.1-0.2,0.1-0.6-0.2-0.8c-0.4-0.3-0.9-0.2-1.3-0.1c3.5-1.2,7.8-5.2,8.3-5.4C190,178.7,185.6,184,183,184.9z M221,177.8
		c0.4,0.5,0.8,0.8,1.1,1c0,0,0,0,0,0c4.2,2.6,8.7,4.4,13.5,5.4C230,185.3,223.9,182.6,221,177.8z M250.6,181.6
		c-3.3,1.3-6.7,1.6-10.2,1.5c-2.9-0.1-5.7-0.6-8.5-1.4c-0.6-0.2-1.1-0.3-1.7-0.5c-0.3-0.1-0.7-0.2-1-0.3c-2.7-0.9-5.3-2.3-7.5-4.2
		c-2.4-2.1-4.2-4.7-6.4-6.9c-3-3.1-5.6-3.7-9.8-3.9c-0.2-1.7-0.4-3.3-0.7-5c-0.2-1.3-0.7-2.6-1-3.8c6.9-1.3,15.5-2,18.5-9.6
		c0.3-0.8,0.5-1.6,0.4-2.4c-0.1-1.3-1-2.4-2-3.2c-2.7-2.2-6.5-2.7-10-2.8c-5.6,0-21.2,0.4-22.2,8.1c-0.3,2.4,1.4,4.7,3.4,6.1
		c1.5,1.1,3.3,2.1,4.9,3c0.3,0.2,4.2,1.6,4.2,1c0.1,2.8,0.3,5.6,0.4,8.8c-5.1,4.1-10,8.3-14.8,12.6c-0.8,0.7-1.7,1.5-2.7,2.1
		c-2.1,1.2-4.6,1.5-7,1.7c-1.7,0.2-3.4,0.3-5-0.1c-1.6-0.4-3.2-1.5-3.8-3.1c-0.1-0.3-0.2-0.8,0-1.1c0.2-0.3,1.7-7.8,2.1-11.7
		c0.3-3.6,0.7-7.2,2.2-10.4c1.7-3.7,4.9-6.8,7.5-9.9c2.9-3.5,6-6.9,9.2-10.2c5.1-5.2,8.6-12.6,8.9-20.1c0.2-5.5,0.2-10.8-0.7-16.2
		c-0.6-3.7-4.5-13.7-4.4-13.8c1.1-1.4,4.2-2.2,5.8-2.6c2.3-0.6,4.7-0.7,7-0.8c3.2-0.1,6.9-0.5,9.9,0.6c1.9,0.7,0.5,9.2,0.4,10.8
		c-0.4,7.4-1.9,14.7-2.8,22c-0.8,6.2-1.6,12.3,2.3,17.7c2.4,3.4,6.2,5.8,10.2,6.6c3.1,0.6,6.3,0.3,9.3,1.2
		c9.1,2.8,14.3,14.8,15,23.5c0.2,3.1,0.4,6.2,0.3,9.4c0,0.2,0,0.8,0.1,1.7C250.7,178,250.9,181.4,250.6,181.6z M213.8,151.4
		c0.8-0.3,1.7-0.5,2.3-1c0.7-0.5,1.2-1.3,1.8-1.9C218.1,149.9,215.4,151.9,213.8,151.4z M219.4,142.7c1,1.5,1,2.8,0,3.8
		C219.4,145.3,219.4,144.2,219.4,142.7z M286.4,50.5c-0.1,2.4-0.7,4.7-1.2,7c-2.6,12.1-4.5,24.4-5.5,36.7c-0.3,3.8-0.6,7.8-2.3,11.2
		c-3.2,6.3-12.9,11-17.4,15.6c0.2-0.2-0.3-5.6-0.4-6.4c-0.6-6.5-2.3-15.6-8.6-20.9c-1.6-1.4,0.5-5.9,1.5-8.7
		c0.2-0.6,0.4-1.2,0.5-1.6c1.1-4,2.4-8,4.1-11.8c3.9-8.8,9.8-16.5,15.6-24.1c2.9-3.7,5.6-7.3,9.6-9.9c0.5-0.3,1-0.7,1.6-0.9
		C286.1,40.3,286.6,46.5,286.4,50.5z"/>
	<path d="M215.9,175.9c-1,0.1-3.2,2-4.2,2.3c-6.2,1.6-14.5,1.1-18.6-1.4c-0.3,0.8-1,2,0.2,2.2c0.3,0,2.8,1.7,3.1,1.8
		c0.3,0.2,0.4,0.5,0.5,0.8c1.3,2.7,3.8,4.7,6.7,5.4c1.5,0.4,3,0.4,4.4-0.1c4-1.4,5.7-6.4,9.5-8.4C217,177.3,216.9,175.8,215.9,175.9
		z M207.5,184c-1.6,0.8-3.2,0.6-4.4-0.7c-0.3-0.3-0.7-0.5-1-0.7c-0.3-0.3-0.6-0.5-1-0.8c0-0.2,3.5,0.6,6,0c1.1-0.1,3.6-1.1,4.9-1.4
		C210.8,182.1,209.2,183.1,207.5,184z"/>
	<path d="M210,132.8c-0.7-0.8-1.6-0.7-2.5-0.6c-0.7,0-1.4,0-2,0c-1.2,0.1-2.5,0.2-3.8,0.3c-0.7,0.1-1.3,0.4-2,0.4
		c-1.7,0-3.3,0.2-4.6,1.6c-0.7,0.7-1.8,1-2.6,1.5c0,0.1,0,0.3,0,0.4c0.6-0.1,1.2-0.1,1.6-0.2c0.9,0.6,1.7,1.1,2.6,1.7
		c0.6-1.5,1.8-1.6,3-1.7c0.6-0.1,1.2,0,1.9,0c1.5,0,3.1,0,4.6-0.1c0.6,0,1.4,0.5,2-0.4c-0.5-0.2-0.9-0.4-1.2-0.6
		c0-0.1,0.1-0.2,0.1-0.4c0.9,0.2,1.9,0.3,2.8,0.5c0.9,0.2,1.9-0.2,2.4-1.2c0.2-0.4,0.1-0.5-0.3-0.9
		C211.2,132.5,210.4,133.3,210,132.8z"/>
	<path d="M227.2,122.5c0.3,0.2,0.7,0.3,0.9,0.6c1.4,1.8,1.5,1.8,3.5,0.8c1.9-0.9,2.7-2.4,2.5-4.5c0-0.3,0.2-1.1-0.7-0.7
		c-0.1,0.1-0.5-0.3-0.7-0.5c0.1-0.3,0.3-0.6,0.3-0.8c-0.2-1.4-2.1-2.4-3.3-1.7c-1.6,0.8-3.3,1.7-3.6,3.9
		C225.9,120.7,226.3,121.9,227.2,122.5z"/>
	<path d="M183.5,123c1-0.5,1.5-1.6,1.9-2.6c0.1-0.4,0.4-1.7,0.5-1.9c0.3-1.1,0.3-2.5-0.9-3.2c-0.7-0.4-1.8-0.4-2.6-0.5
		c-2.2-0.2-3.8,1.5-4,3.4C178,120.2,180.4,124.4,183.5,123z"/>
</g>
</svg>
